<?xml version="1.0" standalone="no"?>
<!DOCTYPE svg PUBLIC "-//W3C//DTD SVG 20010904//EN" "http://www.w3.org/TR/2001/REC-SVG-20010904/DTD/svg10.dtd">
<svg width="92.00001880526543mm" height="114.00001868605614mm"  viewBox="0 0 92.00001880526543 114.00001868605614" xmlns="http://www.w3.org/2000/svg">
    <title>Bezier Curve : MotorFlansch</title>
    <desc>This is an exported Bezier xml_path from Blender, using the ExportScript by maybites.ch and Craxic</desc>
<path style="fill:none;stroke:#000000;stroke-width:1px;stroke-linecap:butt;stroke-linejoin:miter;stroke-opacity:1" d="M15.006497349590063,57.057007491588806 C15.006497349590063,53.74425537511706 17.693745750933886,51.05700557678938 21.006497401744127,51.05700557678938 C24.319249518215656,51.05700557678938 27.00649745389819,53.74425537511706 27.00649745389819,57.057007491588806 C27.00649745389819,60.36975960806012 24.319249518215656,63.057009406387806 21.006497401744127,63.057009406387806 C17.693745750933886,63.057009406387806 15.006497349590063,60.36975960806012 15.006497349590063,57.057007491588806 Z "/>
<path style="fill:none;stroke:#000000;stroke-width:1px;stroke-linecap:butt;stroke-linejoin:miter;stroke-opacity:1" d="M26.236216384917498,41.55700867623091 C26.236216384917498,40.56318411231041 27.04239109158516,39.75700893998146 28.036216586828232,39.75700893998146 C29.030042082071304,39.75700893998146 29.836216555908322,40.56318411231041 29.836216788738966,41.55700867623091 C29.83621702156961,42.55083417147398 29.030042314901948,43.35700934380293 28.036216586828232,43.35700934380293 C27.042390625923872,43.35700934380293 26.236216384917498,42.55083417147398 26.236216384917498,41.55700867623091 Z "/>
<path style="fill:none;stroke:#000000;stroke-width:1px;stroke-linecap:butt;stroke-linejoin:miter;stroke-opacity:1" d="M13.712823238223791,50.865854412317276 C12.852145206183195,50.36894213035703 12.557063098996878,49.2676871791482 13.053975846618414,48.4070091471076 C13.55088859423995,47.54633018374443 14.652145873755217,47.25124993920326 15.512823905795813,47.7481626868248 C16.37350193783641,48.245075434446335 16.668582182377577,49.346330385655165 16.17166943475604,50.20700841769576 C15.674756687134504,51.06768644973636 14.573501270264387,51.362766694277525 13.712823238223791,50.865854412317276 Z "/>
<path style="fill:none;stroke:#000000;stroke-width:1px;stroke-linecap:butt;stroke-linejoin:miter;stroke-opacity:1" d="M15.512823905795813,66.36585322767496 C14.652145873755217,66.8627659752965 13.5508904568851,66.56768759340048 13.053977709263563,65.70700956135988 C12.557064961642027,64.84633152931929 12.852145206183195,63.74507564678788 13.712823238223791,63.24816243350506 C14.573501270264387,62.75124968588352 15.674756687134504,63.0463294647634 16.17166943475604,63.907007496804 C16.668582182377577,64.7676855288446 16.37350193783641,65.86894048005342 15.512823905795813,66.36585322767496 Z "/>
<path style="fill:none;stroke:#000000;stroke-width:1px;stroke-linecap:butt;stroke-linejoin:miter;stroke-opacity:1" d="M29.836218651384115,72.55700630694628 C29.836219117045403,73.55083273351192 29.030045341700315,74.35700790584087 28.036219846457243,74.35700790584087 C27.042393419891596,74.35700790584087 26.23621778190136,73.55083459615707 26.236217316240072,72.55700723826885 C26.236216850578785,71.56318174302578 27.042392022907734,70.75700657069683 28.036217983812094,70.75700657069683 C29.030043479055166,70.75700657069683 29.836218185722828,71.5631808117032 29.836218651384115,72.55700630694628 Z "/>
<path style="fill:none;stroke:#000000;stroke-width:1px;stroke-linecap:butt;stroke-linejoin:miter;stroke-opacity:1" d="M42.35961086675525,63.24815870821476 C43.22028889879584,63.74507099017501 43.51537100598216,64.84632547572255 43.018458258360624,65.70700397342443 C42.52154551073909,66.5676829367876 41.420289162546396,66.86276411265135 40.559610199183226,66.36585136502981 C39.69893216714263,65.86893861740828 39.40385192260146,64.76768320053816 39.900764670223,63.90700516849756 C40.397677417844534,63.04632667079568 41.49893190339208,62.75124642625451 42.35961086675525,63.24815870821476 Z "/>
<path style="fill:none;stroke:#000000;stroke-width:1px;stroke-linecap:butt;stroke-linejoin:miter;stroke-opacity:1" d="M40.55960647389293,47.7481589615345 C41.42028450593352,47.25124528259039 42.521540854126215,47.54632366448641 43.018454533070326,48.407001696527004 C43.51536821201444,49.26768019422889 43.22028796747327,50.36893607676029 42.3596090041101,50.8658497557044 C41.4989309720695,51.36276296898723 40.39767648652196,51.067683190107346 39.90076280757785,50.20700515806675 C39.403849594295025,49.34632759168744 39.69892890751362,48.24507264047861 40.55960647389293,47.7481589615345 Z "/>
<path style="fill:none;stroke:#000000;stroke-width:1px;stroke-linecap:butt;stroke-linejoin:miter;stroke-opacity:1" d="M72.03197463974357,110.05701059103012 C73.53197767958045,110.05701059103012 75.03197699412704,110.05700686573982 76.53198003396392,110.05700686573982 C79.11531611904502,110.05700686573982 81.69864847883582,110.05700686573982 84.28198456391692,110.05700686573982 C86.86532064899802,110.05700686573982 89.44865300878882,110.05700686573982 92.03198909386992,110.05700686573982 C92.03198909386992,101.2236730158329 92.03198536857963,92.39033916592598 92.03198536857963,83.55700531601906 C92.03198164328933,74.72367146611214 92.03198164328933,65.89033761620522 92.03198164328933,57.057003766298294 C92.03198164328933,48.22366991639137 92.03197791799903,39.39033606648445 92.03197791799903,30.55700221657753 C92.03197419270873,21.72366836667061 92.03197419270873,12.890334516763687 92.03197419270873,4.057000666856766 C91.61530792340636,4.057000666856766 88.76113950833678,4.057000666856766 87.12572216615081,4.057000666856766 C84.6778078339994,4.057000666856766 82.22988977655768,4.057000666856766 79.78197544440627,4.057000666856766 C77.19864308461547,4.057000666856766 74.61530699953437,4.057004392147064 72.03197463974357,4.057004392147064 C68.36530923470855,4.057004392147064 64.69864382967353,4.057000666856766 61.03197656199336,4.057000666856766 C61.03197656199336,5.05699896812439 61.03197656199336,6.057000994682312 61.03197656199336,7.056999295949936 C61.53197571262717,7.056999295949936 62.031974863260984,7.056999295949936 62.531974013894796,7.056999295949936 C62.531974013894796,8.057001322507858 62.531974013894796,9.057007074356079 62.531974013894796,10.057009100914001 C62.031974863260984,10.057009100914001 61.53197571262717,10.057009100914001 61.03197656199336,10.057009100914001 C61.03197656199336,10.723672151565552 61.03197656199336,11.3903389275074 61.03197656199336,12.05700197815895 C59.69864301010966,12.05700197815895 58.365309458225965,12.05700197815895 57.03197590634227,12.05700197815895 C57.03197590634227,11.3903389275074 57.03197590634227,10.723672151565552 57.03197590634227,10.057009100914001 C56.531976755708456,10.057005375623703 56.031975742429495,10.057005375623703 55.53197659179568,10.057001650333405 C55.53197659179568,9.056999623775482 55.53197659179568,8.056993871927261 55.53197659179568,7.056991845369339 C56.031975742429495,7.0569955706596375 56.531976755708456,7.0569955706596375 57.03197590634227,7.056999295949936 C57.03197590634227,6.057000994682312 57.03197590634227,5.05699896812439 57.03197590634227,4.057000666856766 C56.0711955986917,4.057000666856766 55.11041342839599,4.057000666856766 54.14963312074542,4.057000666856766 C54.14963312074542,2.7236671149730682 54.14963312074542,1.3903298377990723 54.14963312074542,0.056996285915374756 C49.48296568915248,0.056996285915374756 44.81629825755954,0.05700001120567322 40.1496308259666,0.05700001120567322 C40.1496308259666,1.3903335630893707 40.1496308259666,2.7236708402633667 40.1496308259666,4.057004392147064 C39.1496278680861,4.057004392147064 38.14962584152818,4.057000666856766 37.14962288364768,4.057000666856766 C37.14962288364768,5.05699896812439 37.14962288364768,6.057000994682312 37.14962288364768,7.056999295949936 C37.64962249994278,7.056999295949936 38.149622581899166,7.056999295949936 38.649622198194265,7.056999295949936 C38.649622198194265,8.057001322507858 38.649622198194265,9.057007074356079 38.649622198194265,10.057009100914001 C38.149622581899166,10.057009100914001 37.64962249994278,10.057009100914001 37.14962288364768,10.057009100914001 C37.14962288364768,10.723672151565552 37.14962288364768,11.3903389275074 37.14962288364768,12.05700197815895 C35.816289564594626,12.05700197815895 34.482956478372216,12.05700197815895 33.14962315931916,12.05700197815895 C33.14962315931916,11.3903389275074 33.14962315931916,10.723672151565552 33.14962315931916,10.057009100914001 C32.64962336840108,10.057005375623703 32.14962363569066,10.057005375623703 31.649623844772577,10.057001650333405 C31.649623844772577,9.056999623775482 31.649623844772577,8.056993871927261 31.649623844772577,7.056991845369339 C32.14962363569066,7.0569955706596375 32.64962336840108,7.0569955706596375 33.14962315931916,7.056999295949936 C33.14962315931916,6.057000994682312 33.14962315931916,5.05699896812439 33.14962315931916,4.057000666856766 C32.48295853706077,4.057000666856766 31.816293973010033,4.057004392147064 31.14962935075164,4.057004392147064 C29.02707675099373,4.057004392147064 26.904524616897106,4.057008117437363 24.781972017139196,4.057008117437363 C22.031972032040358,4.057008117437363 19.28197204694152,4.057008117437363 16.531971130520105,4.057008117437363 C13.781970214098692,4.057008117437363 11.031970228999853,4.057008117437363 8.281970243901014,4.057008117437363 C5.5319702588021755,4.057008117437363 2.7819702737033367,4.057008117437363 0.03197028860449791,4.057008117437363 C0.03197028860449791,12.890341967344284 0.03197401389479637,21.723675817251205 0.03197401389479637,30.557009667158127 C0.03197401389479637,39.39034351706505 0.03197773918509483,48.22367736697197 0.03197773918509483,57.05701121687889 C0.03197773918509483,65.89034506678581 0.031981464475393295,74.72367891669273 0.031981464475393295,83.55701276659966 C0.031981464475393295,92.39034661650658 0.03198518976569176,101.2236804664135 0.03198518976569176,110.05701431632042 C2.7819833122193813,110.05701431632042 5.531981434673071,110.05701431632042 8.28197955712676,110.05701431632042 C11.03197767958045,110.05701431632042 13.781977664679289,110.05701431632042 16.53197578713298,110.05701431632042 C19.281974840909243,110.05701431632042 22.031972963362932,110.05701431632042 24.781972017139196,110.05701431632042 C27.53197293356061,110.05701431632042 30.281973849982023,110.05701431632042 33.03197476640344,110.05701431632042 C33.03197476640344,109.0570160150528 33.03197476640344,108.05701398849487 33.03197476640344,107.05701568722725 C32.531974975485355,107.05701568722725 32.031975242774934,107.05701568722725 31.53197545185685,107.05701568722725 C31.53197545185685,106.05701366066933 31.53197545185685,105.0570116341114 31.53197545185685,104.05700960755348 C32.031975242774934,104.05700960755348 32.531974975485355,104.05700960755348 33.03197476640344,104.05700960755348 C33.03197476640344,103.39034283161163 33.03197476640344,102.72367978096008 33.03197476640344,102.05701300501823 C34.36530808545649,102.05701300501823 35.6986411716789,102.05701300501823 37.031974490731955,102.05701300501823 C37.031974490731955,102.72367978096008 37.031974490731955,103.39034283161163 37.031974490731955,104.05700960755348 C37.531974107027054,104.05700960755348 38.03197418898344,104.05700960755348 38.53197380527854,104.05700960755348 C38.53197380527854,105.0570116341114 38.53197380527854,106.05701366066933 38.53197380527854,107.05701568722725 C38.03197418898344,107.05701568722725 37.531974107027054,107.05701568722725 37.031974490731955,107.05701568722725 C37.031974490731955,108.05701398849487 37.031974490731955,109.0570160150528 37.031974490731955,110.05701431632042 C38.03197791427374,110.05701431632042 39.031980872154236,110.05701059103012 40.03198429569602,110.05701059103012 C40.031983364373446,111.39034414291382 40.031981501728296,112.72368142008781 40.03198057040572,114.05701497197151 C44.698644276708364,114.05701124668121 49.36530798301101,114.05700752139091 54.03197168931365,114.05700379610062 C54.0319698266685,112.72367024421692 54.0319698266685,111.39034041762352 54.03196796402335,110.05700686573982 C55.031969990581274,110.05701059103012 56.031973879784346,110.05701059103012 57.03197590634227,110.05701431632042 C57.03197590634227,109.0570160150528 57.03197590634227,108.05701398849487 57.03197590634227,107.05701568722725 C56.531976755708456,107.05701568722725 56.031975742429495,107.05701568722725 55.53197659179568,107.05701568722725 C55.53197659179568,106.05701366066933 55.53197659179568,105.0570116341114 55.53197659179568,104.05700960755348 C56.031975742429495,104.05700960755348 56.531976755708456,104.05700960755348 57.03197590634227,104.05700960755348 C57.03197590634227,103.39034283161163 57.03197590634227,102.72367978096008 57.03197590634227,102.05701300501823 C58.365309458225965,102.05701300501823 59.69864301010966,102.05701300501823 61.03197656199336,102.05701300501823 C61.03197656199336,102.72367978096008 61.03197656199336,103.39034283161163 61.03197656199336,104.05700960755348 C61.53197571262717,104.05700960755348 62.031976725906134,104.05700960755348 62.531975876539946,104.05700960755348 C62.531975876539946,105.0570116341114 62.531975876539946,106.05701366066933 62.531975876539946,107.05701568722725 C62.031976725906134,107.05701568722725 61.53197571262717,107.05701568722725 61.03197656199336,107.05701568722725 C61.03197656199336,108.05701398849487 61.03197656199336,109.0570160150528 61.03197656199336,110.05701431632042 C64.69864382967353,110.05701431632042 68.36530923470855,110.05701059103012 72.03197463974357,110.05701059103012 Z "/>
</svg>