<?xml version="1.0" standalone="no"?>
<!DOCTYPE svg PUBLIC "-//W3C//DTD SVG 20010904//EN" "http://www.w3.org/TR/2001/REC-SVG-20010904/DTD/svg10.dtd">
<svg width="900.0000357627869mm" height="94.00004148483276mm"  viewBox="0 0 900.0000357627869 94.00004148483276" xmlns="http://www.w3.org/2000/svg">
    <title>Bezier Curve : Rip.001</title>
    <desc>This is an exported Bezier xml_path from Blender, using the ExportScript by maybites.ch and Craxic</desc>
<path style="fill:none;stroke:#000000;stroke-width:1px;stroke-linecap:butt;stroke-linejoin:miter;stroke-opacity:1" d="M485.45001804828644,62.052043691277504 C481.11668586730957,62.05204555392265 476.7833536863327,62.05204927921295 472.4500196427107,62.0520511418581 C472.4500196427107,63.052049443125725 472.4500196427107,64.05204774439335 472.4500196427107,65.05204604566097 C472.4500196427107,65.55204333364964 471.9500186294317,66.052036896348 471.4500194787979,66.052036896348 C457.45001811534166,66.05203875899315 443.450017683208,66.05204248428345 429.45001631975174,66.0520443469286 C428.9500171691179,66.0520406216383 428.45001615583897,65.55204705893993 428.45001615583897,65.05204604566097 C428.45001615583897,64.05204401910305 428.45001615583897,63.05204385519028 428.45001615583897,62.052043691277504 C422.61668279767036,62.052043691277504 419.7833536565304,62.052043691277504 415.4500214755535,62.052043691277504 C410.4500187933445,62.052043691277504 405.4500198364258,57.05204752832651 405.4500235617161,52.0520411208272 C405.4500235617161,42.052041344344616 405.4500235617161,32.05204249918461 405.4500235617161,22.052042722702026 C405.4500198364258,17.05204562842846 410.4500187933445,12.052046671509743 415.4500214755535,12.052042946219444 C438.78335304558277,12.052042946219444 462.1166864782572,12.052042946219444 485.45001804828644,12.052042946219444 C490.45001700520515,12.052046671509743 495.45001968741417,17.05204562842846 495.45001968741417,22.052042722702026 C495.45001968741417,32.05204249918461 495.45001968741417,42.052041344344616 495.45001968741417,52.0520411208272 C495.45001968741417,57.05204752832651 490.45001700520515,62.052043691277504 485.45001804828644,62.052043691277504 Z "/>
<path style="fill:none;stroke:#000000;stroke-width:1px;stroke-linecap:butt;stroke-linejoin:miter;stroke-opacity:1" d="M718.450024574995,67.05200539529324 C718.450024574995,60.38533763587475 718.450024574995,53.71867173910141 718.450024574995,47.0520049110055 C719.7833506762981,47.05200444534421 721.1166767776012,47.052003514021635 722.4500028789043,47.05200304836035 C722.4500028789043,53.71866987645626 722.4500028789043,60.38533391058445 722.4500028789043,67.05200167000294 C721.1166767776012,67.05200353264809 719.7833506762981,67.05200353264809 718.450024574995,67.05200539529324 Z "/>
<path style="fill:none;stroke:#000000;stroke-width:1px;stroke-linecap:butt;stroke-linejoin:miter;stroke-opacity:1" d="M718.4499947726727,27.052042610943317 C718.4499947726727,20.38536460697651 718.4499947726727,13.718685671687126 718.4499947726727,7.052006736397743 C719.7833208739758,7.052006736397743 721.1166469752789,7.052003011107445 722.449973076582,7.052003011107445 C722.449973076582,13.718681946396828 722.449973076582,20.38536088168621 722.449973076582,27.052040748298168 C721.1166469752789,27.052041679620743 719.7833208739758,27.052041679620743 718.4499947726727,27.052042610943317 Z "/>
<path style="fill:none;stroke:#000000;stroke-width:1px;stroke-linecap:butt;stroke-linejoin:miter;stroke-opacity:1" d="M375.4500149190426,62.052043691277504 C332.1166782081127,62.052043691277504 288.78335639834404,62.052043691277504 245.45001968741417,62.052043691277504 C240.45000955462456,62.052043691277504 235.45001432299614,57.05204752832651 235.45001432299614,52.0520411208272 C235.45001432299614,42.05204041302204 235.45001432299614,32.052041567862034 235.45001432299614,22.052040860056877 C235.45001432299614,17.05204190313816 240.45000955462456,12.052042946219444 245.45001968741417,12.052042946219444 C288.78335639834404,12.052042946219444 332.1166782081127,12.052042946219444 375.4500149190426,12.052042946219444 C380.4500176012516,12.052042946219444 385.4500202834606,17.05204190313816 385.4500202834606,22.052040860056877 C385.4500202834606,32.052041567862034 385.4500202834606,42.05204041302204 385.4500202834606,52.0520411208272 C385.4500202834606,57.05204752832651 380.4500176012516,62.052043691277504 375.4500149190426,62.052043691277504 Z "/>
<path style="fill:none;stroke:#000000;stroke-width:1px;stroke-linecap:butt;stroke-linejoin:miter;stroke-opacity:1" d="M722.4500028789043,37.05207218974829 C722.4500028789043,38.156323904171586 721.5542642772198,39.05207275040448 720.4499988257885,39.05207275040448 C719.3457333743572,39.05207275040448 718.4499947726727,38.15632367134094 718.4499947726727,37.052071724087 C718.4499947726727,35.94781977683306 719.3457333743572,35.052070930600166 720.4499988257885,35.052070930600166 C721.5542642772198,35.052070930600166 722.4500028789043,35.947820242494345 722.4500028789043,37.05207218974829 Z "/>
<path style="fill:none;stroke:#000000;stroke-width:1px;stroke-linecap:butt;stroke-linejoin:miter;stroke-opacity:1" d="M182.450041025877,7.052043989300728 C182.450041025877,13.718711748719215 182.450041025877,20.385375782847404 182.450041025877,27.052042610943317 C181.1167149245739,27.052042610943317 179.7833590209484,27.052042610943317 178.4500329196453,27.052042610943317 C178.4500329196453,20.385375782847404 178.4500329196453,13.718711748719215 178.4500329196453,7.052043989300728 C179.7833590209484,7.052043989300728 181.1167149245739,7.052043989300728 182.450041025877,7.052043989300728 Z "/>
<path style="fill:none;stroke:#000000;stroke-width:1px;stroke-linecap:butt;stroke-linejoin:miter;stroke-opacity:1" d="M182.450041025877,47.05204216390848 C182.450041025877,53.718708992004395 182.450041025877,60.38537488877773 182.450041025877,67.05204264819622 C181.1167149245739,67.05204264819622 179.7833888232708,67.05204264819622 178.4500627219677,67.05204264819622 C178.4500627219677,60.38537488877773 178.4500627219677,53.718708992004395 178.4500627219677,47.05204216390848 C179.7833888232708,47.05204216390848 181.1167149245739,47.05204216390848 182.450041025877,47.05204216390848 Z "/>
<path style="fill:none;stroke:#000000;stroke-width:1px;stroke-linecap:butt;stroke-linejoin:miter;stroke-opacity:1" d="M178.4500329196453,37.052029348909855 C178.4500329196453,35.94776901975274 179.34580132365227,35.05201970785856 180.45006677508354,35.052028089761734 C181.55430242419243,35.052036471664906 182.450041025877,35.9477853178978 182.450041025877,37.052029348909855 C182.450041025877,38.156272914260626 181.55430242419243,39.052022226154804 180.45006677508354,39.05203037522733 C179.34580132365227,39.05203852429986 178.4500329196453,38.156289445236325 178.4500329196453,37.052029348909855 Z "/>
<path style="fill:none;stroke:#000000;stroke-width:1px;stroke-linecap:butt;stroke-linejoin:miter;stroke-opacity:1" d="M25.451227873563766,53.05203755944967 C23.784562796354294,48.718703515827656 22.117867916822433,44.38536970503628 20.45120283961296,40.052035661414266 C19.346967190504074,40.05202751234174 18.451228588819504,39.15627820044756 18.451228588819504,38.05203463509679 C18.451228588819504,36.94779106974602 19.346967190504074,36.05204175785184 20.45120283961296,36.052033841609955 C22.117867916822433,31.71870259195566 23.784562796354294,27.385372273623943 25.451227873563766,23.05204102396965 C23.784145563840866,23.385374411940575 22.117093056440353,23.71870593726635 20.450010746717453,24.052039325237274 C21.783336848020554,20.71870544552803 23.116662949323654,17.385371565818787 24.449989050626755,14.052037686109543 C59.78332445025444,14.052037686109543 95.78333780169487,14.052037686109543 130.4500250518322,14.052037686109543 C131.7833511531353,17.385371565818787 133.1166772544384,20.71870544552803 134.4500033557415,24.052039325237274 C132.78333827853203,23.71870593726635 131.11667320132256,23.385370686650276 129.45000812411308,23.052037298679352 C131.11667320132256,27.38537134230137 132.78336808085442,31.718703523278236 134.4500331580639,36.05203756690025 C135.55426880717278,36.052045948803425 136.45000740885735,36.947794795036316 136.45000740885735,38.052038826048374 C136.45000740885735,39.156282391399145 135.55426880717278,40.05203170329332 134.4500331580639,40.05203985236585 C132.78336808085442,44.38537203334272 131.11667320132256,48.718703515827656 129.45000812411308,53.05203569680452 C131.11667320132256,52.718703240156174 132.78333827853203,52.3853717148304 134.4500033557415,52.05203925818205 C134.78334233164787,55.38537406921387 135.11665150523186,58.71870794892311 135.44999048113823,62.052041828632355 C96.11664697527885,62.052041828632355 57.783320397138596,62.052041828632355 19.449993818998337,62.052041828632355 C19.78333279490471,58.71870794892311 20.11667177081108,55.38537406921387 20.450010746717453,52.05203925818205 C22.117093056440353,52.3853717148304 23.784145563840866,52.71870510280132 25.451227873563766,53.05203755944967 Z "/>
<path style="fill:none;stroke:#000000;stroke-width:1px;stroke-linecap:butt;stroke-linejoin:miter;stroke-opacity:1" d="M655.4500161111355,62.052043691277504 C612.1166794002056,62.052043691277504 568.7833575904369,62.052043691277504 525.4500208795071,62.052043691277504 C520.4500107467175,62.052043691277504 515.450015515089,57.05204752832651 515.450015515089,52.0520411208272 C515.450015515089,42.05204041302204 515.450015515089,32.052041567862034 515.450015515089,22.052040860056877 C515.450015515089,17.05204190313816 520.4500107467175,12.052042946219444 525.4500208795071,12.052042946219444 C568.7833575904369,12.052042946219444 612.1166794002056,12.052042946219444 655.4500161111355,12.052042946219444 C660.4500262439251,12.052042946219444 665.4500214755535,17.05204190313816 665.4500214755535,22.052040860056877 C665.4500214755535,32.052041567862034 665.4500214755535,42.05204041302204 665.4500214755535,52.0520411208272 C665.4500214755535,57.05204752832651 660.4500262439251,62.052043691277504 655.4500161111355,62.052043691277504 Z "/>
<path style="fill:none;stroke:#000000;stroke-width:1px;stroke-linecap:butt;stroke-linejoin:miter;stroke-opacity:1" d="M875.4488079249859,23.052033573389053 C877.1154730021954,27.385366685688496 878.7821678817272,31.718699797987938 880.4488329589367,36.05203291028738 C881.5530686080456,36.05204129219055 882.4488072097301,36.94779013842344 882.4488072097301,38.052033703774214 C882.4488072097301,39.15627750195563 881.5530686080456,40.05202658101916 880.4488329589367,40.052034962922335 C878.7821678817272,44.385366678237915 877.1154730021954,48.718698393553495 875.4488079249859,53.052030108869076 C877.1158902347088,52.71869672089815 878.7829427421093,52.38536333292723 880.4500250518322,52.0520299449563 C880.7833640277386,55.385363824665546 881.116703003645,58.718696773052216 881.4500419795513,62.05203065276146 C841.783389300108,62.05203624069691 803.7834016978741,62.052039965987206 765.4500453174114,62.05204555392265 C765.7833842933178,58.71871353685856 766.1166934669018,55.385379657149315 766.4500324428082,52.052046708762646 C768.1166975200176,52.38538009673357 769.7833625972271,52.718713484704494 771.4500276744366,53.05204687267542 C769.7833625972271,48.71871376037598 768.1166677176952,44.38538157939911 766.4500026404858,40.05204846709967 C765.3457669913769,40.052040085196495 764.4500283896923,39.15629100613296 764.4500283896923,38.052047207951546 C764.4500283896923,36.94780317693949 765.3457669913769,36.052054330706596 766.4500026404858,36.052045948803425 C768.1166677176952,31.718712836503983 769.7833625972271,27.385380655527115 771.4500276744366,23.052048474550247 C769.7833625972271,23.38538186252117 768.1166975200176,23.718713387846947 766.4500324428082,24.05204677581787 C767.7833585441113,20.718712896108627 769.1166846454144,17.385379016399384 770.4500107467175,14.05204513669014 C805.1166979968548,14.052039548754692 841.1167113482952,14.052032098174095 876.4500467479229,14.052026510238647 C877.783372849226,17.38536038994789 879.1166989505291,20.718694269657135 880.4500250518322,24.05202814936638 C878.7829427421093,23.718696624040604 877.1158902347088,23.38536509871483 875.4488079249859,23.052033573389053 Z "/>
<path style="fill:none;stroke:#000000;stroke-width:1px;stroke-linecap:butt;stroke-linejoin:miter;stroke-opacity:1" d="M880.4500250518322,-5.947952553629875 C880.4500250518322,-7.281286105513573 880.4500250518322,-8.61461965739727 880.4500250518322,-9.947953209280968 C883.8058261573315,-9.947953209280968 893.7833754718304,-9.947953209280968 900.4500357806683,-9.947953209280968 C900.4500357806683,-0.9479498714208603 900.4500059783459,8.052053466439247 900.4500059783459,17.052060529589653 C899.1166798770428,17.052060529589653 897.7833239734173,17.052060529589653 896.4499978721142,17.052060529589653 C896.4499978721142,23.05194230377674 896.4500276744366,29.051825009286404 896.4500276744366,35.051707714796066 C895.4500405490398,35.051707714796066 894.4500236213207,35.051707714796066 893.450036495924,35.051707714796066 C893.450036495924,34.53776666522026 893.450036495924,34.023825615644455 893.450036495924,33.50988456606865 C892.4500195682049,33.50987432152033 891.4500324428082,33.50986500829458 890.450015515089,33.50985476374626 C890.450015515089,34.02379581332207 890.450015515089,34.53773686289787 890.450015515089,35.05167791247368 C890.1166765391827,35.05167791247368 889.7833673655987,35.05167791247368 889.4500283896923,35.05167791247368 C889.4500283896923,36.3850142583251 889.4500283896923,37.71834967285395 889.4500283896923,39.05168601870537 C889.7833673655987,39.05168601870537 890.1166765391827,39.05168601870537 890.450015515089,39.05168601870537 C890.450015515089,39.55167958140373 890.450015515089,40.0516731441021 890.450015515089,40.55166670680046 C891.4500324428082,40.551676602102816 892.4500195682049,40.55168661382049 893.450036495924,40.55169650912285 C893.450036495924,40.05169293470681 893.450036495924,39.55168959312141 893.450036495924,39.05168601870537 C894.4500236213207,39.05168601870537 895.4500405490398,39.05168601870537 896.4500276744366,39.05168601870537 C896.4500276744366,45.05180760845542 896.4500276744366,51.051930129528046 896.4500276744366,57.05205125361681 C897.7833537757397,57.05205125361681 899.1167096793652,57.05205125361681 900.4500357806683,57.05205125361681 C900.4500357806683,66.0520331710577 900.4500357806683,75.05201415717602 900.4500357806683,84.05199514329433 C873.7833647429943,84.05199886858463 823.8058237731457,84.05199886858463 820.449992865324,84.05200259387493 C820.449992865324,82.71866531670094 820.449992865324,81.38532803952694 820.449992865324,80.05199076235294 C817.783281058073,80.05199448764324 815.1165394484997,80.05199821293354 812.4498276412487,80.05200193822384 C812.4498276412487,79.05200363695621 812.4498276412487,78.05200161039829 812.4498276412487,77.05200330913067 C812.9637686908245,77.05200330913067 813.4776799380779,77.05200330913067 813.9916209876537,77.05200330913067 C813.9916209876537,76.07867436110973 813.9916209876537,75.1053491383791 813.9916209876537,74.13202019035816 C813.4776799380779,74.13202019035816 812.9637686908245,74.13202019035816 812.4498276412487,74.13202019035816 C812.4498276412487,73.7720267623663 812.4498276412487,73.41203333437443 812.4498276412487,73.05203804373741 C811.1165015399456,73.05203804373741 809.7831456363201,73.05203804373741 808.449819535017,73.05203804373741 C808.449819535017,73.41203333437443 808.449819535017,73.7720267623663 808.449819535017,74.13202019035816 C807.9498259723186,74.13202019035816 807.4498026072979,74.13202019035816 806.9498090445995,74.13202019035816 C806.9498090445995,75.1053491383791 806.9498090445995,76.07867436110973 806.9498090445995,77.05200330913067 C807.4498026072979,77.05200330913067 807.9498259723186,77.05200330913067 808.449819535017,77.05200330913067 C808.449819535017,78.05200161039829 808.449819535017,79.05200363695621 808.449819535017,80.05200193822384 C804.1165618598461,80.05200193822384 799.7833339869976,80.05200566351414 795.4500763118267,80.05200566351414 C795.4500763118267,81.38533921539783 795.4500763118267,82.71867276728153 795.4500763118267,84.05200631916523 C767.1167401969433,84.05201749503613 738.7833742797375,84.05203239619732 710.450038164854,84.05204357206821 C710.450038164854,82.71871002018452 710.450038164854,81.38537646830082 710.450038164854,80.05204291641712 C706.1173765361309,80.05203174054623 701.7847149074078,80.05202056467533 697.4520532786846,80.05200938880444 C697.4520532786846,79.05201108753681 697.4520532786846,78.05200906097889 697.4520532786846,77.05201075971127 C697.9659943282604,77.05201075971127 698.4799353778362,77.05201075971127 698.993876427412,77.05201075971127 C698.993876427412,76.07868181169033 698.9938913285732,75.1053565889597 698.9938913285732,74.13202764093876 C698.4799502789974,74.13202764093876 697.9660092294216,74.13202764093876 697.4520681798458,74.13202764093876 C697.4520681798458,73.7720304876566 697.4520681798458,73.41203705966473 697.4520681798458,73.05204176902771 C696.1187271773815,73.05204176902771 694.7854010760784,73.05204176902771 693.4520600736141,73.05204176902771 C693.4520600736141,73.41203705966473 693.4520600736141,73.7720304876566 693.4520600736141,74.13202764093876 C692.9520665109158,74.13202764093876 692.4520729482174,74.13202764093876 691.952079385519,74.13202764093876 C691.952079385519,75.1053565889597 691.9520644843578,76.07868181169033 691.9520644843578,77.05201075971127 C692.4520580470562,77.05201075971127 692.9520665109158,77.05201075971127 693.4520600736141,77.05201075971127 C693.4520600736141,78.05201278626919 693.4520600736141,79.05201481282711 693.4520600736141,80.05201683938503 C689.1180424392223,80.05202428996563 684.7840397059917,80.05203546583652 680.4500220716,80.05204291641712 C680.4500220716,81.38537646830082 680.4500220716,82.71871002018452 680.4500220716,84.05204357206821 C660.4500262439251,84.05204357206821 640.450015515089,84.05204357206821 620.4500196874142,84.05204357206821 C620.4500196874142,82.71871002018452 620.4500196874142,81.38537646830082 620.4500196874142,80.05204291641712 C616.1170898377895,80.05203546583652 611.7841599881649,80.05202428996563 607.4512301385403,80.05201683938503 C607.4512301385403,79.05201853811741 607.4512301385403,78.05202023684978 607.4512301385403,77.05202193558216 C607.9651711881161,77.05202193558216 608.4791122376919,77.05202193558216 608.9930532872677,77.05202193558216 C608.9930532872677,76.07869298756123 608.9930681884289,75.10536776483059 608.9930681884289,74.13203881680965 C608.4791271388531,74.13203881680965 607.9651860892773,74.13203881680965 607.4512450397015,74.13203881680965 C607.4512450397015,73.77203793823719 607.4512450397015,73.41204078495502 607.4512450397015,73.05204176902771 C606.1179189383984,73.05204176902771 604.7845779359341,73.05204176902771 603.451251834631,73.05204176902771 C603.451251834631,73.41204078495502 603.4512369334698,73.77203793823719 603.4512369334698,74.13203881680965 C602.9512433707714,74.13203881680965 602.4512647092342,74.13203881680965 601.9512711465359,74.13203881680965 C601.9512562453747,75.10536776483059 601.9512562453747,76.07869298756123 601.9512413442135,77.05202193558216 C602.4512349069118,77.05202193558216 602.9512433707714,77.05202193558216 603.4512369334698,77.05202193558216 C603.4512369334698,78.05202023684978 603.451251834631,79.05201853811741 603.451251834631,80.05201683938503 C599.1175024211407,80.05202428996563 594.7837679088116,80.05203546583652 590.4500184953213,80.05204291641712 C590.4500184953213,81.38537646830082 590.4500184953213,82.71871002018452 590.4500184953213,84.05204357206821 C570.4500226676464,84.05203612148762 550.4500268399715,84.05202867090702 530.4500235617161,84.05202122032642 C530.4500235617161,82.71868766844273 530.4500235617161,81.38535411655903 530.4500235617161,80.05202056467533 C527.7823282778263,80.05202428996563 525.1146404445171,80.05202801525593 522.4469451606274,80.05203174054623 C522.4469451606274,79.0520297139883 522.4469451606274,78.05203141272068 522.4469451606274,77.05202938616276 C522.9608862102032,77.05202938616276 523.474827259779,77.05202938616276 523.9887683093548,77.05202938616276 C523.9887757599354,76.07870043814182 523.9887757599354,75.10537521541119 523.988783210516,74.13204626739025 C523.4748421609402,74.13204626739025 522.9609011113644,74.13204626739025 522.4469600617886,74.13204626739025 C522.446952611208,73.77204538881779 522.446952611208,73.41204451024532 522.4469451606274,73.05204176902771 C521.1136116087437,73.05204176902771 519.78027805686,73.05204176902771 518.4469445049763,73.05204176902771 C518.4469445049763,73.41204451024532 518.4469519555569,73.77204538881779 518.4469519555569,74.13204626739025 C517.9469509422779,74.13204626739025 517.446949928999,74.13204999268055 516.94694891572,74.13204999268055 C516.94694891572,75.10537894070148 516.9469563663006,76.07870416343212 516.9469563663006,77.05203311145306 C517.4469573795795,77.05203311145306 517.9469509422779,77.05202938616276 518.4469519555569,77.05202938616276 C518.4469519555569,78.05203141272068 518.4469445049763,79.0520297139883 518.4469445049763,80.05203174054623 C514.7813035547733,80.05203174054623 511.1156588792801,80.05202801525593 507.45001792907715,80.05202801525593 C507.45001792907715,65.71869419515133 507.45002165436745,51.3853650316596 507.45002165436745,37.05203214287758 C506.11668810248375,37.05203214287758 504.78335455060005,37.052032608538866 503.45002099871635,37.052032608538866 C503.45001727342606,51.38536410033703 503.45001727342606,65.71869605779648 503.45001354813576,80.05202801525593 C499.1166813671589,80.05202801525593 494.783349186182,80.05202801525593 490.45001700520515,80.05202801525593 C490.45001700520515,81.38536156713963 490.45001700520515,82.71869511902332 490.45001700520515,84.05202867090702 C483.78334924578667,84.05203239619732 477.1166777610779,84.05203239619732 470.45000813901424,84.05203612148762 C470.45000813901424,82.71870256960392 470.45000813901424,81.38536901772022 470.45000813901424,80.05203546583652 C457.11667355149984,80.05203546583652 443.783339895308,80.05203546583652 430.4500053077936,80.05203546583652 C430.4500053077936,81.38536901772022 430.4500053077936,82.71870256960392 430.4500053077936,84.05203612148762 C423.7833394110203,84.05203984677792 417.1166716516018,84.05203984677792 410.4500076174736,84.05204357206821 C410.4500076174736,82.71871002018452 410.4500076174736,81.38537646830082 410.4500076174736,80.05204291641712 C401.11656099557877,80.05204291641712 391.7831180989742,80.05204664170742 382.4496714770794,80.05204664170742 C382.4496714770794,79.0520483404398 382.4496714770794,78.05205003917217 382.4496714770794,77.05205173790455 C382.9636125266552,77.05205173790455 383.477553576231,77.05204801261425 383.9914946258068,77.05204801261425 C383.9915020763874,76.07871906459332 383.9915020763874,75.10539384186268 383.991509526968,74.13206489384174 C383.4775684773922,74.13206489384174 382.9636274278164,74.13206861913204 382.4496863782406,74.13206861913204 C382.44967892766,73.77206028997898 382.44967892766,73.41205196082592 382.4496714770794,73.05204176902771 C381.1163379251957,73.05204176902771 379.783004373312,73.05204176902771 378.4496708214283,73.05204176902771 C378.4496708214283,73.41205196082592 378.4496782720089,73.77206028997898 378.4496782720089,74.13206861913204 C377.94967725872993,74.13206861913204 377.449676245451,74.13206861913204 376.949675232172,74.13206861913204 C376.949675232172,75.10539756715298 376.9496826827526,76.07872278988361 376.9496826827526,77.05205173790455 C377.44968369603157,77.05205173790455 377.94967725872993,77.05205173790455 378.4496782720089,77.05205173790455 C378.4496782720089,78.05205003917217 378.4496708214283,79.0520483404398 378.4496708214283,80.05204664170742 C375.78311547636986,80.05204664170742 373.116567581892,80.05205036699772 370.4500122368336,80.05205036699772 C370.4500122368336,81.38538391888142 370.4500122368336,82.71871747076511 370.4500122368336,84.05205102264881 C350.4500015079975,84.05205102264881 330.44999822974205,84.05205102264881 310.449987500906,84.05205102264881 C310.449987500906,82.71871747076511 310.449987500906,81.38538391888142 310.449987500906,80.05205036699772 C306.11564204096794,80.05205409228802 301.7812816798687,80.05205781757832 297.44693621993065,80.05206154286861 C297.44693621993065,79.05205951631069 297.44693621993065,78.05206121504307 297.44693621993065,77.05205918848515 C297.96087726950645,77.05205918848515 298.47481831908226,77.05205918848515 298.98875936865807,77.05205918848515 C298.98875936865807,76.07873024046421 298.98875936865807,75.10540501773357 298.98875936865807,74.13207606971264 C298.47481831908226,74.13207606971264 297.96087726950645,74.13207606971264 297.44693621993065,74.13207606971264 C297.44693621993065,73.77206401526928 297.44693621993065,73.41205196082592 297.44693621993065,73.05204176902771 C296.11361011862755,73.05204176902771 294.78026911616325,73.05204176902771 293.44694301486015,73.05204176902771 C293.44694301486015,73.41205196082592 293.44692811369896,73.77206401526928 293.44692811369896,74.13207606971264 C292.9469345510006,74.13207606971264 292.44694098830223,74.13207606971264 291.94694742560387,74.13207606971264 C291.94694742560387,75.10540501773357 291.94694742560387,76.07873024046421 291.94694742560387,77.05205918848515 C292.44694098830223,77.05205918848515 292.9469345510006,77.05205918848515 293.44692811369896,77.05205918848515 C293.44692811369896,78.05206121504307 293.44694301486015,79.05205951631069 293.44694301486015,80.05206154286861 C289.11462411284447,80.05206154286861 284.7823052108288,80.05205781757832 280.4499863088131,80.05205781757832 C280.4499863088131,81.38539136946201 280.4499863088131,82.71872492134571 280.4499863088131,84.05205847322941 C260.44999048113823,84.0520621985197 240.44997975230217,84.0520621985197 220.4499839246273,84.05206592381 C220.4499839246273,82.71873237192631 220.4499839246273,81.38539882004261 220.4499839246273,80.05206526815891 C216.11638352274895,80.05206526815891 211.7827682197094,80.05206154286861 207.44916781783104,80.05206154286861 C207.44916781783104,79.05206324160099 207.44916781783104,78.05206866562366 207.44916781783104,77.05207036435604 C207.96310886740685,77.05207036435604 208.47704991698265,77.05207036435604 208.99099096655846,77.05207036435604 C208.99099096655846,76.0787414163351 208.99099096655846,75.10541619360447 208.99099096655846,74.13208724558353 C208.47704991698265,74.13208724558353 207.96310886740685,74.13208724558353 207.44916781783104,74.13208724558353 C207.44916781783104,73.77207146584988 207.44916781783104,73.41205568611622 207.44916781783104,73.05204176902771 C206.11584171652794,73.05204176902771 204.78250071406364,73.05204176902771 203.44917461276054,73.05204176902771 C203.44917461276054,73.41205568611622 203.44915971159935,73.77207146584988 203.44915971159935,74.13208724558353 C202.94916614890099,74.13208724558353 202.44917258620262,74.13208724558353 201.94917902350426,74.13208724558353 C201.94917902350426,75.10541619360447 201.94917902350426,76.0787414163351 201.94917902350426,77.05207036435604 C202.44917258620262,77.05207036435604 202.94916614890099,77.05207036435604 203.44915971159935,77.05207036435604 C203.44915971159935,78.05206866562366 203.44917461276054,79.05207069218159 203.44917461276054,80.05206899344921 C199.11612555384636,80.05206899344921 194.7830466926098,80.05206526815891 190.4499976336956,80.05206526815891 C190.4499976336956,81.38539882004261 190.4499976336956,82.71873237192631 190.4499976336956,84.05206592381 C162.11463496088982,84.05206592381 150.3389923274517,84.05206592381 105.44387981295586,84.05206592381 C105.44387981295586,82.71873237192631 105.44387981295586,81.38539882004261 105.44387981295586,80.05206526815891 C101.11249968409538,80.05206899344921 96.78111955523491,80.05207271873951 92.44973942637444,80.05207644402981 C92.44973942637444,79.05207814276218 92.44973942637444,78.05207611620426 92.44973942637444,77.05207781493664 C92.96368047595024,77.05207781493664 93.47762152552605,77.05207781493664 93.99156257510185,77.05207781493664 C93.99156257510185,76.0787488669157 93.99156257510185,75.10542364418507 93.99156257510185,74.13209469616413 C93.47762152552605,74.13209469616413 92.96368047595024,74.13209469616413 92.44973942637444,74.13209469616413 C92.44973942637444,73.77207891643047 92.44973942637444,73.41206313669682 92.44973942637444,73.05204549431801 C91.11641332507133,73.05204549431801 89.78305742144585,73.05204549431801 88.44973132014275,73.05204549431801 C88.44973132014275,73.41206313669682 88.44973132014275,73.77207891643047 88.44973132014275,74.13209469616413 C87.94973775744438,74.13209469616413 87.44974419474602,74.13209469616413 86.94975063204765,74.13209469616413 C86.94975063204765,75.10542364418507 86.94975063204765,76.0787488669157 86.94975063204765,77.05207781493664 C87.44974419474602,77.05207781493664 87.94973775744438,77.05207781493664 88.44973132014275,77.05207781493664 C88.44973132014275,78.05207611620426 88.44973132014275,79.05207814276218 88.44973132014275,80.05207644402981 C85.78316852450371,80.05207644402981 83.11657592654228,80.0520801693201 80.45001313090324,80.0520801693201 C80.45001313090324,81.3854137212038 80.45001313090324,82.7187472730875 80.45001313090324,84.0520808249712 C72.0117835700512,84.0520808249712 27.116671055555344,84.0520808249712 0.45000001788139343,84.0520808249712 C0.45000001788139343,75.0520663112402 0.45002982020378113,66.05205366015434 0.45002982020378113,57.052040077745914 C1.7833559215068817,57.05203728377819 3.11671182513237,57.05203542113304 4.450037926435471,57.05203262716532 C4.450037926435471,51.052232809364796 4.450008124113083,45.0524320602417 4.450008124113083,39.05263224244118 C5.449995249509811,39.05263224244118 6.450012177228928,39.05263224244118 7.449999302625656,39.05263224244118 C7.449999302625656,39.56657329201698 7.449999302625656,40.08051434159279 7.449999302625656,40.594455391168594 C8.450016230344772,40.59446039702743 9.4500033557415,40.59446528647095 10.450020283460617,40.59447029232979 C10.450020283460617,40.08052924275398 10.450020283460617,39.56658819317818 10.450020283460617,39.05264714360237 C10.78335925936699,39.05264714360237 11.116668432950974,39.05264714360237 11.450007408857346,39.05264714360237 C11.450007408857346,37.71931079775095 11.450007408857346,36.3859753832221 11.450007408857346,35.05263903737068 C11.116668432950974,35.05263903737068 10.78335925936699,35.05263903737068 10.450020283460617,35.05263903737068 C10.450020283460617,34.55264547467232 10.450020283460617,34.05265191197395 10.450020283460617,33.55265834927559 C9.4500033557415,33.552653692662716 8.450016230344772,33.55264810472727 7.449999302625656,33.552643448114395 C7.449999302625656,34.05264166742563 7.449999302625656,34.55264035239816 7.449999302625656,35.05263903737068 C6.450012177228928,35.05263903737068 5.449995249509811,35.05263903737068 4.450008124113083,35.05263903737068 C4.450008124113083,29.05243968218565 4.450008124113083,23.052240327000618 4.450008124113083,17.05204190313816 C3.1166820228099823,17.05204190313816 1.783326119184494,17.05204190313816 0.45000001788139343,17.05204190313816 C0.45000001788139343,8.052038565278053 0.45000001788139343,-0.9479573220014572 0.45000001788139343,-9.947960659861565 C7.116660326719284,-9.947960659861565 13.783350437879562,-9.947960659861565 20.450010746717453,-9.947960659861565 C20.450010746717453,-8.614623382687569 20.450010746717453,-7.281289830803871 20.450010746717453,-5.947952553629875 C24.783715456724167,-5.947956278920174 29.11742016673088,-5.947956278920174 33.451124876737595,-5.947960004210472 C33.451124876737595,-4.947961702942848 33.451124876737595,-3.947959676384926 33.451124876737595,-2.947961375117302 C32.93718382716179,-2.947961375117302 32.423212975263596,-2.947961375117302 31.90927192568779,-2.947961375117302 C31.90927192568779,-1.9488683193922043 31.90927192568779,-0.9497752636671066 31.90927192568779,0.04931779205799103 C32.423212975263596,0.04931779205799103 32.93718382716179,0.04931779205799103 33.451124876737595,0.04931779205799103 C33.451124876737595,0.3835582882165909 33.451124876737595,0.7177987843751907 33.451124876737595,1.0520392805337906 C34.784450978040695,1.0520392805337906 36.11780688166618,1.0520392805337906 37.451132982969284,1.0520392805337906 C37.451132982969284,0.7177987843751907 37.451132982969284,0.3835582882165909 37.451132982969284,0.04931779205799103 C37.95112654566765,0.04931779205799103 38.451090306043625,0.04931779205799103 38.95108386874199,0.04931779205799103 C38.95108386874199,-0.9497752636671066 38.95108386874199,-1.9488683193922043 38.95108386874199,-2.947961375117302 C38.451090306043625,-2.947961375117302 37.95112654566765,-2.947961375117302 37.451132982969284,-2.947961375117302 C37.451132982969284,-3.947959676384926 37.451132982969284,-4.947961702942848 37.451132982969284,-5.947960004210472 C54.45118233561516,-5.947960004210472 88.01309749484062,-5.947960004210472 88.4513108432293,-5.947960004210472 C88.4513108432293,-4.947961702942848 88.4513108432293,-3.947959676384926 88.4513108432293,-2.947961375117302 C87.93736979365349,-2.947961375117302 87.42342874407768,-2.947961375117302 86.90948769450188,-2.947961375117302 C86.90948769450188,-1.9488683193922043 86.90945789217949,-0.9497752636671066 86.90945789217949,0.04931779205799103 C87.4233989417553,0.04931779205799103 87.93736979365349,0.04931779205799103 88.4513108432293,0.04931779205799103 C88.4513108432293,0.3835582882165909 88.4513108432293,0.7177987843751907 88.4513108432293,1.0520392805337906 C89.7846369445324,1.0520392805337906 91.11799284815788,1.0520392805337906 92.45131894946098,1.0520392805337906 C92.45131894946098,0.7177987843751907 92.45131894946098,0.3835582882165909 92.45131894946098,0.04931779205799103 C92.95131251215935,0.04931779205799103 93.45127627253532,0.04931779205799103 93.95126983523369,0.04931779205799103 C93.95126983523369,-0.9497752636671066 93.95129963755608,-1.9488683193922043 93.95129963755608,-2.947961375117302 C93.45130607485771,-2.947961375117302 92.95131251215935,-2.947961375117302 92.45131894946098,-2.947961375117302 C92.45131894946098,-3.947959676384926 92.45131894946098,-4.947961702942848 92.45131894946098,-5.947960004210472 C96.819177120924,-5.947956278920174 101.1870650947094,-5.947956278920174 105.55492326617241,-5.947952553629875 C105.55492326617241,-7.281286105513573 105.55492326617241,-8.61461965739727 105.55492326617241,-9.947953209280968 C150.45003578066826,-9.947953209280968 162.15164944529533,-9.947953209280968 190.450027436018,-9.947953209280968 C190.450027436018,-8.61461965739727 190.450027436018,-7.281286105513573 190.450027436018,-5.947952553629875 C194.7839705646038,-5.947956278920174 199.11788389086723,-5.947956278920174 203.45182701945305,-5.947960004210472 C203.45182701945305,-4.947961702942848 203.45182701945305,-3.947959676384926 203.45182701945305,-2.947961375117302 C202.93788596987724,-2.947961375117302 202.42394492030144,-2.947961375117302 201.91000387072563,-2.947961375117302 C201.91000387072563,-1.9488683193922043 201.90998896956444,-0.9497752636671066 201.90998896956444,0.04931779205799103 C202.42393001914024,0.04931779205799103 202.93787106871605,0.04931779205799103 203.45181211829185,0.04931779205799103 C203.45181211829185,0.3835582882165909 203.45181211829185,0.7178025096654892 203.45181211829185,1.052043005824089 C204.78515312075615,1.052043005824089 206.11847922205925,1.052043005824089 207.45182022452354,1.052043005824089 C207.45182022452354,0.7178025096654892 207.45182022452354,0.3835582882165909 207.45182022452354,0.04931779205799103 C207.9518137872219,0.04931779205799103 208.45180734992027,0.04931779205799103 208.95180091261864,0.04931779205799103 C208.95180091261864,-0.9497752636671066 208.95181581377983,-1.9488683193922043 208.95181581377983,-2.947961375117302 C208.45182225108147,-2.947961375117302 207.9518137872219,-2.947961375117302 207.45182022452354,-2.947961375117302 C207.45182022452354,-3.947959676384926 207.45182022452354,-4.947961702942848 207.45182022452354,-5.947960004210472 C211.78455635905266,-5.947956278920174 216.11727759242058,-5.947956278920174 220.4500137269497,-5.947952553629875 C220.4500137269497,-7.281286105513573 220.4500137269497,-8.61461965739727 220.4500137269497,-9.947953209280968 C240.45000955462456,-9.947953209280968 260.4500202834606,-9.947953209280968 280.4500161111355,-9.947953209280968 C280.4500161111355,-8.61461965739727 280.4500161111355,-7.281286105513573 280.4500161111355,-5.947952553629875 C284.78334829211235,-5.947956278920174 289.1166953742504,-5.947956278920174 293.4500275552273,-5.947960004210472 C293.4500275552273,-4.947961702942848 293.4500275552273,-3.947959676384926 293.4500275552273,-2.947961375117302 C292.9360865056515,-2.947961375117302 292.42214545607567,-2.947961375117302 291.90820440649986,-2.947961375117302 C291.90820440649986,-1.9488683193922043 291.90818950533867,-0.9497752636671066 291.90818950533867,0.04931779205799103 C292.4221305549145,0.04931779205799103 292.9360716044903,0.04931779205799103 293.4500126540661,0.04931779205799103 C293.4500126540661,0.3835582882165909 293.4500126540661,0.7178025096654892 293.4500126540661,1.052043005824089 C294.7833536565304,1.052043005824089 296.1166797578335,1.052043005824089 297.4500207602978,1.052043005824089 C297.4500207602978,0.7178025096654892 297.4500207602978,0.3835582882165909 297.4500207602978,0.04931779205799103 C297.95001432299614,0.04931779205799103 298.4500227868557,0.04931779205799103 298.95001634955406,0.04931779205799103 C298.95001634955406,-0.9497752636671066 298.95001634955406,-1.9488683193922043 298.95001634955406,-2.947961375117302 C298.4500227868557,-2.947961375117302 297.95001432299614,-2.947961375117302 297.4500207602978,-2.947961375117302 C297.4500207602978,-3.947959676384926 297.4500207602978,-4.947961702942848 297.4500207602978,-5.947960004210472 C301.78335294127464,-5.947956278920174 306.1167000234127,-5.947956278920174 310.4500322043896,-5.947952553629875 C310.4500322043896,-7.281286105513573 310.4500322043896,-8.61461965739727 310.4500322043896,-9.947953209280968 C330.45002803206444,-9.947953209280968 350.4500238597393,-9.947953209280968 370.45002713799477,-9.947953209280968 C370.45002713799477,-8.61461965739727 370.45002713799477,-7.281286105513573 370.45002713799477,-5.947952553629875 C373.11506256461143,-5.947956278920174 375.7800979912281,-5.947956278920174 378.4451334178448,-5.947960004210472 C378.4451334178448,-4.947961702942848 378.4451334178448,-3.947959676384926 378.4451334178448,-2.947961375117302 C377.93119236826897,-2.947961375117302 377.41725131869316,-2.947961375117302 376.90331026911736,-2.947961375117302 C376.90330281853676,-1.9488683193922043 376.90330281853676,-0.9497752636671066 376.90329536795616,0.04931779205799103 C377.41723641753197,0.04931779205799103 377.9311774671078,0.04931779205799103 378.4451185166836,0.04931779205799103 C378.4451185166836,0.3835582882165909 378.4451185166836,0.7178025096654892 378.4451185166836,1.052043005824089 C379.7784520685673,1.052043005824089 381.111785620451,1.052043005824089 382.44511917233467,1.052043005824089 C382.44511917233467,0.7178025096654892 382.44512662291527,0.3835582882165909 382.44512662291527,0.04931779205799103 C382.94512018561363,0.04931779205799103 383.4451211988926,0.04931779205799103 383.94511476159096,0.04931779205799103 C383.94511476159096,-0.9497752636671066 383.94512221217155,-1.9488683193922043 383.94512221217155,-2.947961375117302 C383.4451211988926,-2.947961375117302 382.94512763619423,-2.947961375117302 382.44512662291527,-2.947961375117302 C382.44512662291527,-3.947959676384926 382.44511917233467,-4.947961702942848 382.44511917233467,-5.947960004210472 C386.1134199798107,-5.947956278920174 389.78172451257706,-5.947956278920174 393.4500253200531,-5.947952553629875 C393.4500215947628,16.718710377812386 393.4500178694725,22.718707635998726 393.4500141441822,37.05204052478075 C394.7833476960659,37.05204052478075 396.1166812479496,37.05204052478075 397.4500147998333,37.05204052478075 C397.4500185251236,22.718707635998726 397.4500259757042,16.718710377812386 397.4500297009945,-5.947952553629875 C401.78336188197136,-5.947952553629875 406.1166940629482,-5.947952553629875 410.4500262439251,-5.947952553629875 C410.4500262439251,-7.281286105513573 410.4500262439251,-8.61461965739727 410.4500262439251,-9.947953209280968 C417.1166940033436,-9.947953209280968 423.78336176276207,-9.947953209280968 430.4500313848257,-9.947953209280968 C430.4500313848257,-8.61461965739727 430.4500313848257,-7.281286105513573 430.4500313848257,-5.947952553629875 C436.44907124340534,-5.947956278920174 442.448111101985,-5.947956278920174 448.4471509605646,-5.947960004210472 C448.4471509605646,-4.947961702942848 448.4471509605646,-3.947959676384926 448.4471509605646,-2.947961375117302 C447.9332099109888,-2.947961375117302 447.419268861413,-2.947961375117302 446.9053278118372,-2.947961375117302 C446.9053229223937,-1.9488683193922043 446.9053178001195,-0.9497752636671066 446.905312910676,0.04931779205799103 C447.4192539602518,0.04931779205799103 447.9331950098276,0.04931779205799103 448.4471360594034,0.04931779205799103 C448.4471360594034,0.3835582882165909 448.4471360594034,0.7177987843751907 448.4471360594034,1.0520392805337906 C449.7804696112871,1.0520392805337906 451.1138031631708,1.0520392805337906 452.4471367150545,1.0520392805337906 C452.4471392761916,0.7177987843751907 452.44714160449803,0.3835582882165909 452.4471441656351,0.04931779205799103 C452.94714028947055,0.04931779205799103 453.44713618047535,0.04931779205799103 453.9471323043108,0.04931779205799103 C453.9471348654479,-0.9497752636671066 453.9471371937543,-1.9488683193922043 453.9471397548914,-2.947961375117302 C453.44714106991887,-2.947961375117302 452.94714285060763,-2.947961375117302 452.4471441656351,-2.947961375117302 C452.45507228188217,-3.947959676384926 452.4630001652986,-4.947961702942848 452.47092828154564,-5.947960004210472 C458.46396390348673,-5.947956278920174 464.45699859410524,-5.947956278920174 470.45003421604633,-5.947952553629875 C470.45003421604633,-7.281286105513573 470.45003421604633,-8.61461965739727 470.45003421604633,-9.947953209280968 C477.1167019754648,-9.947953209280968 483.78336787223816,-9.947953209280968 490.45003563165665,-9.947953209280968 C490.45003563165665,-8.61461965739727 490.45003563165665,-7.281286105513573 490.45003563165665,-5.947952553629875 C499.784387499094,-5.947956278920174 509.1187393665314,-5.947956278920174 518.4530912339687,-5.947960004210472 C518.4530912339687,-4.947961702942848 518.4530912339687,-3.947959676384926 518.4530912339687,-2.947961375117302 C517.9391501843929,-2.947961375117302 517.4252091348171,-2.947961375117302 516.9112680852413,-2.947961375117302 C516.9112606346607,-1.9488683193922043 516.9112606346607,-0.9497752636671066 516.9112531840801,0.04931779205799103 C517.4251942336559,0.04931779205799103 517.9391352832317,0.04931779205799103 518.4530763328075,0.04931779205799103 C518.4530763328075,0.38356201350688934 518.4530763328075,0.7178025096654892 518.4530763328075,1.0520467311143875 C519.7864098846912,1.0520467311143875 521.1197434365749,1.0520467311143875 522.4530769884586,1.0520467311143875 C522.4530769884586,0.7178025096654892 522.4530844390392,0.38356201350688934 522.4530844390392,0.04931779205799103 C522.9530780017376,0.04931779205799103 523.4530790150166,0.04931779205799103 523.9530725777149,0.04931779205799103 C523.9530725777149,-0.9497752636671066 523.9530800282955,-1.9488683193922043 523.9530800282955,-2.947961375117302 C523.4530790150166,-2.947961375117302 522.9530854523182,-2.947961375117302 522.4530844390392,-2.947961375117302 C522.4530844390392,-3.947959676384926 522.4530769884586,-4.947961702942848 522.4530769884586,-5.947960004210472 C525.1187308132648,-5.947956278920174 527.7843846380711,-5.947956278920174 530.4500384628773,-5.947952553629875 C530.4500384628773,-7.281286105513573 530.4500384628773,-8.61461965739727 530.4500384628773,-9.947953209280968 C550.4425166547298,-9.947953209280968 570.4349948465824,-9.947953209280968 590.427473038435,-9.947953209280968 C590.427473038435,-8.61461965739727 590.427473038435,-7.281286105513573 590.427473038435,-5.947952553629875 C594.7677640616894,-5.947956278920174 599.108069986105,-5.947956278920174 603.4483610093594,-5.947960004210472 C603.4483610093594,-4.947961702942848 603.4483610093594,-3.947959676384926 603.4483610093594,-2.947961375117302 C602.9344199597836,-2.947961375117302 602.4204789102077,-2.947961375117302 601.9065378606319,-2.947961375117302 C601.9065378606319,-1.9488683193922043 601.9065378606319,-0.9497752636671066 601.9065378606319,0.04931779205799103 C602.4204789102077,0.04931779205799103 602.9344199597836,0.04931779205799103 603.4483610093594,0.04931779205799103 C603.4483610093594,0.38356201350688934 603.4483610093594,0.7178025096654892 603.4483610093594,1.0520467311143875 C604.7816871106625,1.0520467311143875 606.1150281131268,1.0520467311143875 607.4483542144299,1.0520467311143875 C607.4483542144299,0.7178025096654892 607.448369115591,0.38356201350688934 607.448369115591,0.04931779205799103 C607.9483626782894,0.04931779205799103 608.4483562409878,0.04931779205799103 608.9483498036861,0.04931779205799103 C608.9483498036861,-0.9497752636671066 608.9483498036861,-1.9488683193922043 608.9483498036861,-2.947961375117302 C608.4483562409878,-2.947961375117302 607.9483626782894,-2.947961375117302 607.448369115591,-2.947961375117302 C607.448369115591,-3.947959676384926 607.4483542144299,-4.947961702942848 607.4483542144299,-5.947960004210472 C611.7747275531292,-5.947956278920174 616.1011008918285,-5.947956278920174 620.4274742305279,-5.947952553629875 C620.4274742305279,-7.281286105513573 620.4274742305279,-8.61461965739727 620.4274742305279,-9.947953209280968 C640.4275147616863,-9.947953209280968 660.4275403916836,-9.947953209280968 680.427580922842,-9.947953209280968 C680.427580922842,-8.61461965739727 680.427580922842,-7.281286105513573 680.427580922842,-5.947952553629875 C684.7678719460964,-5.947956278920174 689.108177870512,-5.947956278920174 693.4484688937664,-5.947960004210472 C693.4484688937664,-4.947961702942848 693.4484688937664,-3.947959676384926 693.4484688937664,-2.947961375117302 C692.9345278441906,-2.947961375117302 692.4205867946148,-2.947961375117302 691.906645745039,-2.947961375117302 C691.906645745039,-1.9488683193922043 691.906645745039,-0.9497752636671066 691.906645745039,0.04931779205799103 C692.4205867946148,0.04931779205799103 692.9345278441906,0.04931779205799103 693.4484688937664,0.04931779205799103 C693.4484688937664,0.38356201350688934 693.4484688937664,0.7178025096654892 693.4484688937664,1.0520467311143875 C694.7817949950695,1.0520467311143875 696.1151359975338,1.0520467311143875 697.4484620988369,1.0520467311143875 C697.4484620988369,0.7178025096654892 697.4484769999981,0.38356201350688934 697.4484769999981,0.04931779205799103 C697.9484705626965,0.04931779205799103 698.4484641253948,0.04931779205799103 698.9484576880932,0.04931779205799103 C698.9484576880932,-0.9497752636671066 698.9484576880932,-1.9488683193922043 698.9484576880932,-2.947961375117302 C698.4484641253948,-2.947961375117302 697.9484705626965,-2.947961375117302 697.4484769999981,-2.947961375117302 C697.4484769999981,-3.947959676384926 697.4484620988369,-4.947961702942848 697.4484620988369,-5.947960004210472 C701.774820536375,-5.947956278920174 706.1011938750744,-5.947956278920174 710.4275672137737,-5.947952553629875 C710.4275672137737,-7.281286105513573 710.4275672137737,-8.61461965739727 710.4275672137737,-9.947953209280968 C738.7684135138988,-9.947953209280968 767.1092300117016,-9.947953209280968 795.4500763118267,-9.947953209280968 C795.4500763118267,-8.61461965739727 795.4500763118267,-7.281286105513573 795.4500763118267,-5.947952553629875 C799.7827379405499,-5.947956278920174 804.115399569273,-5.947956278920174 808.4480611979961,-5.947960004210472 C808.4480611979961,-4.947961702942848 808.4480611979961,-3.947959676384926 808.4480611979961,-2.947961375117302 C807.9341201484203,-2.947961375117302 807.4201492965221,-2.947961375117302 806.9062082469463,-2.947961375117302 C806.9062082469463,-1.9488683193922043 806.9062082469463,-0.9497752636671066 806.9062082469463,0.04931779205799103 C807.4201492965221,0.04931779205799103 807.9341201484203,0.04931779205799103 808.4480611979961,0.04931779205799103 C808.4480611979961,0.38356201350688934 808.4480611979961,0.7178025096654892 808.4480611979961,1.0520467311143875 C809.7813872992992,1.0520467311143875 811.11468359828,1.0520467311143875 812.448009699583,1.0520467311143875 C812.4480395019054,0.7178025096654892 812.4480395019054,0.38356201350688934 812.4480693042278,0.04931779205799103 C812.9480628669262,0.04931779205799103 813.4480266273022,0.04931779205799103 813.9480201900005,0.04931779205799103 C813.9480201900005,-0.9497752636671066 813.9480201900005,-1.9488683193922043 813.9480201900005,-2.947961375117302 C813.4480266273022,-2.947961375117302 812.9480628669262,-2.947961375117302 812.4480693042278,-2.947961375117302 C812.4480395019054,-3.947959676384926 812.4480395019054,-4.947961702942848 812.448009699583,-5.947960004210472 C829.4480292499065,-5.947960004210472 846.4480189979076,-5.947960004210472 863.4480385482311,-5.947960004210472 C863.4480385482311,-4.947961702942848 863.4480385482311,-3.947959676384926 863.4480385482311,-2.947961375117302 C862.9340974986553,-2.947961375117302 862.4201266467571,-2.947961375117302 861.9061855971813,-2.947961375117302 C861.9061855971813,-1.9488683193922043 861.9061855971813,-0.9497752636671066 861.9061855971813,0.04931779205799103 C862.4201266467571,0.04931779205799103 862.9340974986553,0.04931779205799103 863.4480385482311,0.04931779205799103 C863.4480385482311,0.38356201350688934 863.4480385482311,0.7178025096654892 863.4480385482311,1.0520467311143875 C864.7813646495342,1.0520467311143875 866.1146609485149,1.0520467311143875 867.447987049818,1.0520467311143875 C867.4480168521404,0.7178025096654892 867.4480168521404,0.38356201350688934 867.4480466544628,0.04931779205799103 C867.9480402171612,0.04931779205799103 868.4480039775372,0.04931779205799103 868.9479975402355,0.04931779205799103 C868.9479975402355,-0.9497752636671066 868.9479975402355,-1.9488683193922043 868.9479975402355,-2.947961375117302 C868.4480039775372,-2.947961375117302 867.9480402171612,-2.947961375117302 867.4480466544628,-2.947961375117302 C867.4480168521404,-3.947959676384926 867.4480168521404,-4.947961702942848 867.447987049818,-5.947960004210472 C871.7819897830486,-5.947956278920174 876.1160223186016,-5.947956278920174 880.4500250518322,-5.947952553629875 Z "/>
</svg>