<?xml version="1.0" standalone="no"?>
<!DOCTYPE svg PUBLIC "-//W3C//DTD SVG 20010904//EN" "http://www.w3.org/TR/2001/REC-SVG-20010904/DTD/svg10.dtd">
<svg width="94.0295085310936mm" height="114.00002241134644mm"  viewBox="0 0 94.0295085310936 114.00002241134644" xmlns="http://www.w3.org/2000/svg">
    <title>Bezier Curve : MotorAbschirmung</title>
    <desc>This is an exported Bezier xml_path from Blender, using the ExportScript by maybites.ch and Craxic</desc>
<path style="fill:none;stroke:#000000;stroke-width:1px;stroke-linecap:butt;stroke-linejoin:miter;stroke-opacity:1" d="M72.04178247600794,37.05700980126858 C72.04178247600794,30.39034204185009 72.04178247600794,23.72367614507675 72.04178247600794,17.057008385658264 C75.37511449307203,17.057008385658264 78.70844837278128,17.057008385658264 82.04177852720022,17.057008385658264 C82.04177852720022,23.72367614507675 82.04177852720022,30.39034204185009 82.04177852720022,37.05700980126858 C78.70844837278128,37.05700980126858 75.37511449307203,37.05700980126858 72.04178247600794,37.05700980126858 Z "/>
<path style="fill:none;stroke:#000000;stroke-width:1px;stroke-linecap:butt;stroke-linejoin:miter;stroke-opacity:1" d="M57.07151249051094,110.05701431632042 C57.071511559188366,111.39034786820412 57.07150969654322,112.72368514537811 57.07150876522064,114.05701869726181 C63.738177455961704,114.05701497197151 70.40484521538019,114.05701124668121 77.07151483744383,114.05700752139091 C77.07151483744383,112.72367396950722 77.07151111215353,111.39034414291382 77.07151111215353,110.05701059103012 C81.4048432931304,110.05701059103012 85.73817919939756,110.05701059103012 90.07151138037443,110.05701059103012 C90.07151138037443,105.72367841005325 90.07150765508413,101.39034250378609 90.07150765508413,97.05701032280922 C91.40484120696783,97.05701032280922 92.73817475885153,97.05700659751892 94.07150831073523,97.05700659751892 C94.07150831073523,87.05700495839119 94.07150458544493,77.05700704455376 94.07150458544493,67.0570063367486 C92.73817103356123,67.0570063367486 91.40483748167753,67.0570063367486 90.07150392979383,67.0570063367486 C90.07150020450354,64.39034109562635 90.07150020450354,61.72367585450411 90.07149647921324,59.05701061338186 C89.07149817794561,59.057010846212506 88.07149615138769,59.05701107904315 87.07149785012007,59.057011311873794 C87.07149785012007,59.55701116099954 87.07149785012007,60.05701101012528 87.07149785012007,60.55701085925102 C86.07149582356215,60.55701085925102 85.07149752229452,60.55701085925102 84.0714954957366,60.55701085925102 C84.0714954957366,60.05701101012528 84.0714954957366,59.55701116099954 84.0714954957366,59.057011311873794 C83.40482871979475,59.057011311873794 82.7381619438529,59.057011311873794 82.07149516791105,59.057011311873794 C82.07149516791105,57.72367787640542 82.07149516791105,56.390344557352364 82.07149516791105,55.05701112188399 C82.7381619438529,55.05701112188399 83.40482871979475,55.05701112188399 84.0714954957366,55.05701112188399 C84.0714954957366,54.557011272758245 84.0714954957366,54.0570114236325 84.0714954957366,53.55701157450676 C85.07149752229452,53.55701157450676 86.07149582356215,53.55701157450676 87.07149785012007,53.55701157450676 C87.07149785012007,54.0570114236325 87.07149785012007,54.557011272758245 87.07149785012007,55.05701112188399 C88.07149615138769,55.05701112188399 89.07149817794561,55.05701112188399 90.07149647921324,55.05701112188399 C90.07150020450354,52.39034238830209 90.07150020450354,49.72367388755083 90.07150392979383,47.05700492113829 C91.40483748167753,47.05700492113829 92.73817103356123,47.05700492113829 94.07150458544493,47.05700492113829 C94.07150458544493,37.05700421333313 94.07150086015463,27.0570025742054 94.07150086015463,17.057000935077667 C92.73816730827093,17.057000935077667 91.40483375638723,17.057004660367966 90.07150020450354,17.057004660367966 C90.07150020450354,12.723672479391098 90.07149647921324,8.390336573123932 90.07149647921324,4.057004392147064 C85.73816429823637,4.057004392147064 81.4048283919692,4.057004392147064 77.07149621099234,4.057004392147064 C77.07149621099234,2.7236708402633667 77.07149621099234,1.3903335630893707 77.07149621099234,0.05700001120567322 C70.40482845157385,0.05700001120567322 63.73816069215536,0.05700373649597168 57.07149386405945,0.05700373649597168 C57.07149386405945,1.3903372883796692 57.07149386405945,2.723674565553665 57.07149386405945,4.057008117437363 C54.404824897646904,4.057008117437363 51.73815593123436,4.057004392147064 49.071486964821815,4.057004392147064 C49.071486964821815,5.057002693414688 49.071486964821815,6.0570047199726105 49.071486964821815,7.057003021240234 C49.571486581116915,7.057003021240234 50.071486197412014,7.057003021240234 50.5714862793684,7.057003021240234 C50.5714862793684,8.057005047798157 50.5714862793684,9.057010799646378 50.5714862793684,10.0570128262043 C50.071486197412014,10.0570128262043 49.571486581116915,10.0570128262043 49.071486964821815,10.0570128262043 C49.071486964821815,10.72367587685585 49.071486964821815,11.390342652797699 49.071486964821815,12.05700570344925 C47.73815341293812,12.05700570344925 46.40481986105442,12.05700570344925 45.07148630917072,12.05700570344925 C45.07148630917072,11.390342652797699 45.07148630917072,10.72367587685585 45.07148630917072,10.0570128262043 C44.57148646004498,10.057009100914001 44.07148684374988,10.057009100914001 43.57148699462414,10.057005375623703 C43.57148699462414,9.05700334906578 43.57148699462414,8.05699759721756 43.57148699462414,7.0569955706596375 C44.07148684374988,7.056999295949936 44.57148646004498,7.056999295949936 45.07148630917072,7.057003021240234 C45.07148630917072,6.0570047199726105 45.07148630917072,5.057002693414688 45.07148630917072,4.057004392147064 C42.404821533709764,4.057004392147064 39.73815722391009,4.057008117437363 37.071492448449135,4.057008117437363 C37.071492448449135,2.723674565553665 37.071492448449135,1.3903372883796692 37.071492448449135,0.05700373649597168 C30.39500016719103,0.05700373649597168 23.718508817255497,0.05700746178627014 17.042015604674816,0.05700746178627014 C17.042015604674816,1.3903410136699677 17.042015604674816,2.7236782908439636 17.042015604674816,4.057011842727661 C9.375345818698406,4.057011842727661 8.375343792140484,4.057011842727661 4.042007885873318,4.057011842727661 C4.042007885873318,8.390344023704529 4.042007885873318,12.723679929971695 4.042007885873318,17.057012110948563 C2.7086706086993217,17.057012110948563 1.3753370568156242,17.05701583623886 0.041999779641628265,17.05701583623886 C0.04200350493192673,27.057017475366592 0.04201095551252365,37.057017251849174 0.04201468080282211,47.05701795965433 C1.3753482326865196,47.05701702833176 2.708681784570217,47.05701702833176 4.042015336453915,47.05701609700918 C4.042011611163616,49.72368133813143 4.042004160583019,52.390346579253674 4.042000435292721,55.05701205320656 C5.041998736560345,55.057011587545276 6.042000763118267,55.05701135471463 7.041999064385891,55.057010889053345 C7.041999064385891,54.5570110399276 7.041999064385891,54.05701119080186 7.041999064385891,53.557011341676116 C8.042001090943813,53.55701110884547 9.042003117501736,53.55701110884547 10.042005144059658,53.55701087601483 C10.042005144059658,54.05701072514057 10.042005144059658,54.557010574266315 10.042005144059658,55.05701042339206 C10.708671920001507,55.05701042339206 11.375340558588505,55.05701042339206 12.042007334530354,55.05701042339206 C12.042007334530354,56.39034385886043 12.042007334530354,57.72367717791349 12.042007334530354,59.05701061338186 C11.375340558588505,59.05701061338186 10.708671920001507,59.05701061338186 10.042005144059658,59.05701061338186 C10.042005144059658,59.557010462507606 10.042005144059658,60.05701031163335 10.042005144059658,60.55701016075909 C9.042003117501736,60.557010393589735 8.042001090943813,60.557010393589735 7.041999064385891,60.55701062642038 C7.041999064385891,60.057010777294636 7.041999064385891,59.55701092816889 7.041999064385891,59.05701107904315 C6.042000763118267,59.057011311873794 5.041998736560345,59.057011311873794 4.042000435292721,59.05701154470444 C4.042004160583019,61.72368051111698 4.042011611163616,64.39034947752953 4.042015336453915,67.05701844394207 C2.708681784570217,67.05701844394207 1.3753482326865196,67.0570175126195 0.04201468080282211,67.0570175126195 C0.04201468080282211,77.05701822042465 0.04201468080282211,87.05701985955238 0.04201468080282211,97.05702149868011 C1.3753482326865196,97.05702149868011 2.708681784570217,97.05701777338982 4.042015336453915,97.05701777338982 C4.042019061744213,101.39034995436668 4.042019061744213,105.72368586063385 4.042022787034512,110.05701804161072 C8.375358693301678,110.05701804161072 9.3753607198596,110.05701804161072 17.04203050583601,110.05701804161072 C17.04203050583601,111.39035159349442 17.04203050583601,112.72368887066841 17.04203050583601,114.05702242255211 C23.71852558106184,114.05701869726181 30.395019724965096,114.05701497197151 37.071514800190926,114.05701124668121 C37.071513403207064,112.72367769479752 37.07151247188449,111.39034786820412 37.07151107490063,110.05701431632042 C39.738173289224505,110.05701431632042 42.40483527071774,110.05701804161072 45.07149748504162,110.05701804161072 C45.07149748504162,109.0570197403431 45.07149748504162,108.05701771378517 45.07149748504162,107.05701941251755 C44.571497635915875,107.05701941251755 44.071498019620776,107.05701941251755 43.57149817049503,107.05701941251755 C43.57149817049503,106.05701738595963 43.57149817049503,105.0570153594017 43.57149817049503,104.05701333284378 C44.071498019620776,104.05701333284378 44.571497635915875,104.05701333284378 45.07149748504162,104.05701333284378 C45.07149748504162,103.39034655690193 45.07149748504162,102.72368350625038 45.07149748504162,102.05701673030853 C46.404831036925316,102.05701673030853 47.73816458880901,102.05701673030853 49.07149814069271,102.05701673030853 C49.07149814069271,102.72368350625038 49.07149814069271,103.39034655690193 49.07149814069271,104.05701333284378 C49.57149775698781,104.05701333284378 50.07149737328291,104.05701333284378 50.571497455239296,104.05701333284378 C50.571497455239296,105.0570153594017 50.571497455239296,106.05701738595963 50.571497455239296,107.05701941251755 C50.07149737328291,107.05701941251755 49.57149775698781,107.05701941251755 49.07149814069271,107.05701941251755 C49.07149814069271,108.05701771378517 49.07149814069271,109.0570197403431 49.07149814069271,110.05701804161072 C51.73816990107298,110.05701804161072 54.40484073013067,110.05701431632042 57.07151249051094,110.05701431632042 Z "/>
</svg>