<?xml version="1.0" standalone="no"?>
<!DOCTYPE svg PUBLIC "-//W3C//DTD SVG 20010904//EN" "http://www.w3.org/TR/2001/REC-SVG-20010904/DTD/svg10.dtd">
<svg width="115.99999666213989mm" height="48.00000414252281mm"  viewBox="0 0 115.99999666213989 48.00000414252281" xmlns="http://www.w3.org/2000/svg">
    <title>Bezier Curve : Spring_no1</title>
    <desc>This is an exported Bezier xml_path from Blender, using the ExportScript by maybites.ch and Craxic</desc>
<path style="fill:none;stroke:#000000;stroke-width:1px;stroke-linecap:butt;stroke-linejoin:miter;stroke-opacity:1" d="M60.05800238251686,18.02300108782947 C60.05801239423454,22.689668053761125 60.05802217312157,27.35633455403149 60.05803218483925,32.023001519963145 C58.72469607181847,32.023001519963145 57.39136019162834,32.023001519963145 56.05802407860756,32.023001519963145 C56.05801406688988,27.35633455403149 56.05800428800285,22.689668053761125 56.05799427628517,18.02300108782947 C57.39133038930595,18.02300108782947 58.72466626949608,18.02300108782947 60.05800238251686,18.02300108782947 Z "/>
<path style="fill:none;stroke:#000000;stroke-width:1px;stroke-linecap:butt;stroke-linejoin:miter;stroke-opacity:1" d="M56.05802407860756,37.02300233952701 C56.05802407860756,35.918742476031184 56.953797721304,35.02299269847572 58.05805793404579,35.02300108037889 C59.162301615811884,35.02300946228206 60.05803218483925,35.91875830851495 60.05803218483925,37.02300233952701 C60.05803218483925,38.12724637053907 59.162301615811884,39.02299521677196 58.05805793404579,39.02300359867513 C56.953797721304,39.0230119805783 56.05802407860756,38.12726220302284 56.05802407860756,37.02300233952701 Z "/>
<path style="fill:none;stroke:#000000;stroke-width:1px;stroke-linecap:butt;stroke-linejoin:miter;stroke-opacity:1" d="M53.0580030977726,9.023003337904811 C46.058003813028336,9.023003337904811 40.0579916536808,12.023001966997981 33.05799236893654,12.023001966997981 C26.057993084192276,12.023001966997981 19.057993799448013,9.023003337904811 13.058011442422867,9.023003337904811 C11.058007389307022,9.023003337904811 11.058007389307022,5.023002682253718 13.058011442422867,5.023002682253718 C19.057993799448013,5.023002682253718 26.057993084192276,8.023001311346889 33.05799236893654,8.023001311346889 C40.0579916536808,8.023001311346889 46.058003813028336,5.023002682253718 53.0580030977726,5.023002682253718 C55.05800715088844,5.023002682253718 61.05801931023598,5.023002682253718 63.057993561029434,5.023002682253718 C70.0579928457737,5.023002682253718 76.05800500512123,8.023001311346889 83.0580042898655,8.023001311346889 C90.05800357460976,8.023001311346889 96.05801573395729,5.023002682253718 103.05801501870155,5.023002682253718 C105.0580190718174,5.023002682253718 105.0580190718174,9.023003337904811 103.05801501870155,9.023003337904811 C96.05801573395729,9.023003337904811 90.05800357460976,12.023001966997981 83.0580042898655,12.023001966997981 C76.05800500512123,12.023001966997981 70.0579928457737,9.023003337904811 63.057993561029434,9.023003337904811 C61.05801931023598,9.023003337904811 55.05800715088844,9.023003337904811 53.0580030977726,9.023003337904811 Z "/>
<path style="fill:none;stroke:#000000;stroke-width:1px;stroke-linecap:butt;stroke-linejoin:miter;stroke-opacity:1" d="M63.057993561029434,10.023003501817584 C70.0579928457737,10.023003501817584 76.05800500512123,13.023002130910754 83.0580042898655,13.023002130910754 C90.05800357460976,13.023002130910754 96.05801573395729,10.023003501817584 103.05801501870155,10.023003501817584 C104.05800214409828,10.023003501817584 104.05800214409828,12.02300382964313 103.05801501870155,12.02300382964313 C96.05801573395729,12.02300382964313 90.05800357460976,15.0230024587363 83.0580042898655,15.0230024587363 C76.05800500512123,15.0230024587363 70.0579928457737,12.02300382964313 63.057993561029434,12.02300382964313 C62.058006435632706,12.02300382964313 62.058006435632706,10.023003501817584 63.057993561029434,10.023003501817584 Z "/>
<path style="fill:none;stroke:#000000;stroke-width:1px;stroke-linecap:butt;stroke-linejoin:miter;stroke-opacity:1" d="M63.057993561029434,13.023003993555903 C70.0579928457737,13.023003993555903 76.05800500512123,16.023002622649074 83.0580042898655,16.023002622649074 C90.05800357460976,16.023002622649074 96.05801573395729,13.023003993555903 103.05801501870155,13.023003993555903 C104.05800214409828,13.023003993555903 104.05800214409828,15.02300432138145 103.05801501870155,15.02300432138145 C96.05801573395729,15.02300432138145 90.05800357460976,18.023002484813333 83.0580042898655,18.023002484813333 C76.05800500512123,18.023002484813333 70.0579928457737,15.02300432138145 63.057993561029434,15.02300432138145 C62.058006435632706,15.02300432138145 62.058006435632706,13.023003993555903 63.057993561029434,13.023003993555903 Z "/>
<path style="fill:none;stroke:#000000;stroke-width:1px;stroke-linecap:butt;stroke-linejoin:miter;stroke-opacity:1" d="M63.057993561029434,16.023004485294223 C70.0579928457737,16.023004485294223 76.05800500512123,19.023002648726106 83.0580042898655,19.023002648726106 C90.05800357460976,19.023002648726106 96.05801573395729,16.023004485294223 103.05801501870155,16.023004485294223 C104.05800214409828,16.023004485294223 104.05800214409828,18.023004347458482 103.05801501870155,18.023004347458482 C96.05801573395729,18.023004347458482 90.05800357460976,21.023002510890365 83.0580042898655,21.023002510890365 C76.05800500512123,21.023002510890365 70.0579928457737,18.023004347458482 63.057993561029434,18.023004347458482 C62.058006435632706,18.023004347458482 62.058006435632706,16.023004485294223 63.057993561029434,16.023004485294223 Z "/>
<path style="fill:none;stroke:#000000;stroke-width:1px;stroke-linecap:butt;stroke-linejoin:miter;stroke-opacity:1" d="M63.057993561029434,19.023004511371255 C70.0579928457737,19.023004511371255 76.05800500512123,22.023002674803138 83.0580042898655,22.023002674803138 C90.05800357460976,22.023002674803138 96.05801573395729,19.023004511371255 103.05801501870155,19.023004511371255 C104.05800214409828,19.023004511371255 104.05800214409828,21.023004373535514 103.05801501870155,21.023004373535514 C96.05801573395729,21.023004373535514 90.05800357460976,24.023002536967397 83.0580042898655,24.023002536967397 C76.05800500512123,24.023002536967397 70.0579928457737,21.023004373535514 63.057993561029434,21.023004373535514 C62.058006435632706,21.023004373535514 62.058006435632706,19.023004511371255 63.057993561029434,19.023004511371255 Z "/>
<path style="fill:none;stroke:#000000;stroke-width:1px;stroke-linecap:butt;stroke-linejoin:miter;stroke-opacity:1" d="M63.057993561029434,22.023004537448287 C70.0579928457737,22.023004537448287 76.05800500512123,25.02300270088017 83.0580042898655,25.02300270088017 C90.05800357460976,25.02300270088017 96.05801573395729,22.023004537448287 103.05801501870155,22.023004537448287 C104.05800214409828,22.023004537448287 104.05800214409828,24.023004399612546 103.05801501870155,24.023004399612546 C96.05801573395729,24.023004399612546 90.05800357460976,27.02300256304443 83.0580042898655,27.02300256304443 C76.05800500512123,27.02300256304443 70.0579928457737,24.023004399612546 63.057993561029434,24.023004399612546 C62.058006435632706,24.023004399612546 62.058006435632706,22.023004537448287 63.057993561029434,22.023004537448287 Z "/>
<path style="fill:none;stroke:#000000;stroke-width:1px;stroke-linecap:butt;stroke-linejoin:miter;stroke-opacity:1" d="M63.057993561029434,26.023002399131656 C70.0579928457737,26.023002399131656 76.05800500512123,29.023001028224826 83.0580042898655,29.023001028224826 C90.05800357460976,29.023001028224826 96.05801573395729,26.023002399131656 103.05801501870155,26.023002399131656 C104.05800214409828,26.023002399131656 104.05800214409828,28.023002726957202 103.05801501870155,28.023002726957202 C96.05801573395729,28.023002726957202 90.05800357460976,31.023001356050372 83.0580042898655,31.023001356050372 C76.05800500512123,31.023001356050372 70.0579928457737,28.023002726957202 63.057993561029434,28.023002726957202 C62.058006435632706,28.023002726957202 62.058006435632706,26.023002399131656 63.057993561029434,26.023002399131656 Z "/>
<path style="fill:none;stroke:#000000;stroke-width:1px;stroke-linecap:butt;stroke-linejoin:miter;stroke-opacity:1" d="M63.057993561029434,29.023002890869975 C70.0579928457737,29.023002890869975 76.05800500512123,32.023001519963145 83.0580042898655,32.023001519963145 C90.05800357460976,32.023001519963145 96.05801573395729,29.023002890869975 103.05801501870155,29.023002890869975 C104.05800214409828,29.023002890869975 104.05800214409828,31.02300321869552 103.05801501870155,31.02300321869552 C96.05801573395729,31.02300321869552 90.05800357460976,34.02300184778869 83.0580042898655,34.02300184778869 C76.05800500512123,34.02300184778869 70.0579928457737,31.02300321869552 63.057993561029434,31.02300321869552 C62.058006435632706,31.02300321869552 62.058006435632706,29.023002890869975 63.057993561029434,29.023002890869975 Z "/>
<path style="fill:none;stroke:#000000;stroke-width:1px;stroke-linecap:butt;stroke-linejoin:miter;stroke-opacity:1" d="M63.057993561029434,32.023003382608294 C70.0579928457737,32.023003382608294 76.05800500512123,35.023002011701465 83.0580042898655,35.023002011701465 C90.05800357460976,35.023002011701465 96.05801573395729,32.023003382608294 103.05801501870155,32.023003382608294 C104.05800214409828,32.023003382608294 104.05800214409828,34.02300371043384 103.05801501870155,34.02300371043384 C96.05801573395729,34.02300371043384 90.05800357460976,37.02300233952701 83.0580042898655,37.02300233952701 C76.05800500512123,37.02300233952701 70.0579928457737,34.02300371043384 63.057993561029434,34.02300371043384 C62.058006435632706,34.02300371043384 62.058006435632706,32.023003382608294 63.057993561029434,32.023003382608294 Z "/>
<path style="fill:none;stroke:#000000;stroke-width:1px;stroke-linecap:butt;stroke-linejoin:miter;stroke-opacity:1" d="M63.057993561029434,35.023003874346614 C70.0579928457737,35.023003874346614 76.05800500512123,38.023002503439784 83.0580042898655,38.023002503439784 C90.05800357460976,38.023002503439784 96.05801573395729,35.023003874346614 103.05801501870155,35.023003874346614 C104.05800214409828,35.023003874346614 104.05800214409828,37.02300420217216 103.05801501870155,37.02300420217216 C96.05801573395729,37.02300420217216 90.05800357460976,40.02300283126533 83.0580042898655,40.02300283126533 C76.05800500512123,40.02300283126533 70.0579928457737,37.02300420217216 63.057993561029434,37.02300420217216 C62.058006435632706,37.02300420217216 62.058006435632706,35.023003874346614 63.057993561029434,35.023003874346614 Z "/>
<path style="fill:none;stroke:#000000;stroke-width:1px;stroke-linecap:butt;stroke-linejoin:miter;stroke-opacity:1" d="M63.057993561029434,38.02300436608493 C70.0579928457737,38.02300436608493 76.05800500512123,41.0230029951781 83.0580042898655,41.0230029951781 C90.05800357460976,41.0230029951781 96.05801573395729,38.02300436608493 103.05801501870155,38.02300436608493 C104.05800214409828,38.02300436608493 104.05800214409828,40.02300469391048 103.05801501870155,40.02300469391048 C96.05801573395729,40.02300469391048 90.05800357460976,43.02300332300365 83.0580042898655,43.02300332300365 C76.05800500512123,43.02300332300365 70.0579928457737,40.02300469391048 63.057993561029434,40.02300469391048 C62.058006435632706,40.02300469391048 62.058006435632706,38.02300436608493 63.057993561029434,38.02300436608493 Z "/>
<path style="fill:none;stroke:#000000;stroke-width:1px;stroke-linecap:butt;stroke-linejoin:miter;stroke-opacity:1" d="M13.05798164010048,10.023003501817584 C20.057980924844742,10.023003501817584 26.057993084192276,13.023002130910754 33.05799236893654,13.023002130910754 C40.0579916536808,13.023002130910754 46.058003813028336,10.023003501817584 53.0580030977726,10.023003501817584 C54.05799022316933,10.023003501817584 54.05799022316933,12.02300382964313 53.0580030977726,12.02300382964313 C46.058003813028336,12.02300382964313 40.0579916536808,15.0230024587363 33.05799236893654,15.0230024587363 C26.057993084192276,15.0230024587363 20.057980924844742,12.02300382964313 13.05798164010048,12.02300382964313 C12.05799451470375,12.02300382964313 12.05799451470375,10.023003501817584 13.05798164010048,10.023003501817584 Z "/>
<path style="fill:none;stroke:#000000;stroke-width:1px;stroke-linecap:butt;stroke-linejoin:miter;stroke-opacity:1" d="M13.05798164010048,13.023003993555903 C20.057980924844742,13.023003993555903 26.057993084192276,16.023002622649074 33.05799236893654,16.023002622649074 C40.0579916536808,16.023002622649074 46.058003813028336,13.023003993555903 53.0580030977726,13.023003993555903 C54.05799022316933,13.023003993555903 54.05799022316933,15.02300432138145 53.0580030977726,15.02300432138145 C46.058003813028336,15.02300432138145 40.0579916536808,18.023002484813333 33.05799236893654,18.023002484813333 C26.057993084192276,18.023002484813333 20.057980924844742,15.02300432138145 13.05798164010048,15.02300432138145 C12.05799451470375,15.02300432138145 12.05799451470375,13.023003993555903 13.05798164010048,13.023003993555903 Z "/>
<path style="fill:none;stroke:#000000;stroke-width:1px;stroke-linecap:butt;stroke-linejoin:miter;stroke-opacity:1" d="M13.05798164010048,16.023004485294223 C20.057980924844742,16.023004485294223 26.057993084192276,19.023002648726106 33.05799236893654,19.023002648726106 C40.0579916536808,19.023002648726106 46.058003813028336,16.023004485294223 53.0580030977726,16.023004485294223 C54.05799022316933,16.023004485294223 54.05799022316933,18.023004347458482 53.0580030977726,18.023004347458482 C46.058003813028336,18.023004347458482 40.0579916536808,21.023002510890365 33.05799236893654,21.023002510890365 C26.057993084192276,21.023002510890365 20.057980924844742,18.023004347458482 13.05798164010048,18.023004347458482 C12.05799451470375,18.023004347458482 12.05799451470375,16.023004485294223 13.05798164010048,16.023004485294223 Z "/>
<path style="fill:none;stroke:#000000;stroke-width:1px;stroke-linecap:butt;stroke-linejoin:miter;stroke-opacity:1" d="M13.05798164010048,19.023004511371255 C20.057980924844742,19.023004511371255 26.057993084192276,22.023002674803138 33.05799236893654,22.023002674803138 C40.0579916536808,22.023002674803138 46.058003813028336,19.023004511371255 53.0580030977726,19.023004511371255 C54.05799022316933,19.023004511371255 54.05799022316933,21.023004373535514 53.0580030977726,21.023004373535514 C46.058003813028336,21.023004373535514 40.0579916536808,24.023002536967397 33.05799236893654,24.023002536967397 C26.057993084192276,24.023002536967397 20.057980924844742,21.023004373535514 13.05798164010048,21.023004373535514 C12.05799451470375,21.023004373535514 12.05799451470375,19.023004511371255 13.05798164010048,19.023004511371255 Z "/>
<path style="fill:none;stroke:#000000;stroke-width:1px;stroke-linecap:butt;stroke-linejoin:miter;stroke-opacity:1" d="M13.05798164010048,22.023004537448287 C20.057980924844742,22.023004537448287 26.057993084192276,25.02300270088017 33.05799236893654,25.02300270088017 C40.0579916536808,25.02300270088017 46.058003813028336,22.023004537448287 53.0580030977726,22.023004537448287 C54.05799022316933,22.023004537448287 54.05799022316933,24.023004399612546 53.0580030977726,24.023004399612546 C46.058003813028336,24.023004399612546 40.0579916536808,27.02300256304443 33.05799236893654,27.02300256304443 C26.057993084192276,27.02300256304443 20.057980924844742,24.023004399612546 13.05798164010048,24.023004399612546 C12.05799451470375,24.023004399612546 12.05799451470375,22.023004537448287 13.05798164010048,22.023004537448287 Z "/>
<path style="fill:none;stroke:#000000;stroke-width:1px;stroke-linecap:butt;stroke-linejoin:miter;stroke-opacity:1" d="M13.05798164010048,26.023002399131656 C20.057980924844742,26.023002399131656 26.057993084192276,29.023001028224826 33.05799236893654,29.023001028224826 C40.0579916536808,29.023001028224826 46.058003813028336,26.023002399131656 53.0580030977726,26.023002399131656 C54.05799022316933,26.023002399131656 54.05799022316933,28.023002726957202 53.0580030977726,28.023002726957202 C46.058003813028336,28.023002726957202 40.0579916536808,31.023001356050372 33.05799236893654,31.023001356050372 C26.057993084192276,31.023001356050372 20.057980924844742,28.023002726957202 13.05798164010048,28.023002726957202 C12.05799451470375,28.023002726957202 12.05799451470375,26.023002399131656 13.05798164010048,26.023002399131656 Z "/>
<path style="fill:none;stroke:#000000;stroke-width:1px;stroke-linecap:butt;stroke-linejoin:miter;stroke-opacity:1" d="M13.05798164010048,29.023002890869975 C20.057980924844742,29.023002890869975 26.057993084192276,32.023001519963145 33.05799236893654,32.023001519963145 C40.0579916536808,32.023001519963145 46.058003813028336,29.023002890869975 53.0580030977726,29.023002890869975 C54.05799022316933,29.023002890869975 54.05799022316933,31.02300321869552 53.0580030977726,31.02300321869552 C46.058003813028336,31.02300321869552 40.0579916536808,34.02300184778869 33.05799236893654,34.02300184778869 C26.057993084192276,34.02300184778869 20.057980924844742,31.02300321869552 13.05798164010048,31.02300321869552 C12.05799451470375,31.02300321869552 12.05799451470375,29.023002890869975 13.05798164010048,29.023002890869975 Z "/>
<path style="fill:none;stroke:#000000;stroke-width:1px;stroke-linecap:butt;stroke-linejoin:miter;stroke-opacity:1" d="M13.05798164010048,32.023003382608294 C20.057980924844742,32.023003382608294 26.057993084192276,35.023002011701465 33.05799236893654,35.023002011701465 C40.0579916536808,35.023002011701465 46.058003813028336,32.023003382608294 53.0580030977726,32.023003382608294 C54.05799022316933,32.023003382608294 54.05799022316933,34.02300371043384 53.0580030977726,34.02300371043384 C46.058003813028336,34.02300371043384 40.0579916536808,37.02300233952701 33.05799236893654,37.02300233952701 C26.057993084192276,37.02300233952701 20.057980924844742,34.02300371043384 13.05798164010048,34.02300371043384 C12.05799451470375,34.02300371043384 12.05799451470375,32.023003382608294 13.05798164010048,32.023003382608294 Z "/>
<path style="fill:none;stroke:#000000;stroke-width:1px;stroke-linecap:butt;stroke-linejoin:miter;stroke-opacity:1" d="M13.05798164010048,35.023003874346614 C20.057980924844742,35.023003874346614 26.057993084192276,38.023002503439784 33.05799236893654,38.023002503439784 C40.0579916536808,38.023002503439784 46.058003813028336,35.023003874346614 53.0580030977726,35.023003874346614 C54.05799022316933,35.023003874346614 54.05799022316933,37.02300420217216 53.0580030977726,37.02300420217216 C46.058003813028336,37.02300420217216 40.0579916536808,40.02300283126533 33.05799236893654,40.02300283126533 C26.057993084192276,40.02300283126533 20.057980924844742,37.02300420217216 13.05798164010048,37.02300420217216 C12.05799451470375,37.02300420217216 12.05799451470375,35.023003874346614 13.05798164010048,35.023003874346614 Z "/>
<path style="fill:none;stroke:#000000;stroke-width:1px;stroke-linecap:butt;stroke-linejoin:miter;stroke-opacity:1" d="M13.05798164010048,38.02300436608493 C20.057980924844742,38.02300436608493 26.057993084192276,41.0230029951781 33.05799236893654,41.0230029951781 C40.0579916536808,41.0230029951781 46.058003813028336,38.02300436608493 53.0580030977726,38.02300436608493 C54.05799022316933,38.02300436608493 54.05799022316933,40.02300469391048 53.0580030977726,40.02300469391048 C46.058003813028336,40.02300469391048 40.0579916536808,43.02300332300365 33.05799236893654,43.02300332300365 C26.057993084192276,43.02300332300365 20.057980924844742,40.02300469391048 13.05798164010048,40.02300469391048 C12.05799451470375,40.02300469391048 12.05799451470375,38.02300436608493 13.05798164010048,38.02300436608493 Z "/>
<path style="fill:none;stroke:#000000;stroke-width:1px;stroke-linecap:butt;stroke-linejoin:miter;stroke-opacity:1" d="M53.05797329545021,44.02300721220672 C46.05797401070595,44.02300721220672 40.057961851358414,47.02300584129989 33.05796256661415,47.02300584129989 C26.05796328186989,47.02300584129989 19.057963997125626,44.02300721220672 13.05798164010048,44.02300721220672 C11.057977586984634,44.02300721220672 11.057977586984634,41.0230067204684 13.05798164010048,41.0230067204684 C19.057963997125626,41.0230067204684 26.05796328186989,44.02300534956157 33.05796256661415,44.02300534956157 C40.057961851358414,44.02300534956157 46.05797401070595,41.0230067204684 53.05797329545021,41.0230067204684 C55.057977348566055,41.0230067204684 61.05798950791359,41.0230067204684 63.05796375870705,41.0230067204684 C70.05796304345131,41.0230067204684 76.05797520279884,44.02300534956157 83.0579744875431,44.02300534956157 C90.05797377228737,44.02300534956157 96.0579859316349,41.0230067204684 103.05798521637917,41.0230067204684 C105.05798926949501,41.0230067204684 105.05798926949501,44.02300721220672 103.05798521637917,44.02300721220672 C96.0579859316349,44.02300721220672 90.05797377228737,47.02300584129989 83.0579744875431,47.02300584129989 C76.05797520279884,47.02300584129989 70.05796304345131,44.02300721220672 63.05796375870705,44.02300721220672 C61.05798950791359,44.02300721220672 55.057977348566055,44.02300721220672 53.05797329545021,44.02300721220672 Z "/>
<path style="fill:none;stroke:#000000;stroke-width:1px;stroke-linecap:butt;stroke-linejoin:miter;stroke-opacity:1" d="M6.058280378580093,41.02300485782325 C4.391604125499725,36.68966895155609 2.7249315977096558,32.35633490793407 1.0582553446292877,28.02299946732819 C2.162520796060562,28.02300761640072 3.05828920006752,27.12725900299847 3.05828920006752,26.02299879025668 C3.05828920006752,24.91873881034553 2.162520796060562,24.02298926562071 1.0582553446292877,24.022997414693236 C2.7249315977096558,19.68966663070023 4.391604125499725,15.356335846707225 6.058280378580093,11.023005528375506 C4.391525894403458,11.356337985023856 2.724771410226822,11.68967137299478 1.0580169260501862,12.02300382964313 C2.3913430273532867,8.689669949933887 3.7246691286563873,5.356337932869792 5.057995229959488,2.023004053160548 C40.39134180545807,2.023004053160548 76.3913439810276,2.023004053160548 111.05803123116493,2.023004053160548 C112.39135733246803,5.356337932869792 113.72468343377113,8.689669949933887 115.05800953507423,12.02300382964313 C113.39134445786476,11.689670441672206 111.72467938065529,11.356337053701282 110.05801430344582,11.023003665730357 C111.72469055652618,15.356335846707225 113.39136308431625,19.689668959006667 115.05803933739662,24.02300137281418 C113.95377388596535,24.02299322374165 113.05800548195839,24.918742302805185 113.05800548195839,26.023002399131656 C113.05800548195839,27.127262495458126 113.95377388596535,28.02301157452166 115.05803933739662,28.023003425449133 C113.39136308431625,32.35633677057922 111.72469055652618,36.68966988287866 110.05801430344582,41.0230029951781 C111.72467938065529,40.68967146985233 113.39134445786476,40.35633901320398 115.05800953507423,40.02300655655563 C115.39133733510971,43.35634043626487 115.72466886043549,46.689674315974116 116.05799666047096,50.02300819568336 C76.72465315461159,50.02300819568336 38.39132657647133,50.02300819568336 0.057999998331069946,50.02300819568336 C0.391338974237442,46.689674315974116 0.7246779501438141,43.35634043626487 1.0580169260501862,40.02300655655563 C2.724771410226822,40.35633901320398 4.391525894403458,40.68967146985233 6.058280378580093,41.02300485782325 Z "/>
<path style="fill:none;stroke:#000000;stroke-width:1px;stroke-linecap:butt;stroke-linejoin:miter;stroke-opacity:1" d="M56.05802407860756,13.023002130910754 C56.05802407860756,11.918742267414927 56.95379795413464,11.022993421182036 58.05805793404579,11.023001803085208 C59.16230138298124,11.02301018498838 60.05803218483925,11.91875903122127 60.05803218483925,13.023002130910754 C60.05803218483925,14.127245230600238 59.16230138298124,15.022994076833129 58.05805793404579,15.0230024587363 C56.95379795413464,15.023010840639472 56.05802407860756,14.127261994406581 56.05802407860756,13.023002130910754 Z "/>
</svg>