<?xml version="1.0" standalone="no"?>
<!DOCTYPE svg PUBLIC "-//W3C//DTD SVG 20010904//EN" "http://www.w3.org/TR/2001/REC-SVG-20010904/DTD/svg10.dtd">
<svg width="740.0000095367432mm" height="740.0000393390656mm"  viewBox="0 0 740.0000095367432 740.0000393390656" xmlns="http://www.w3.org/2000/svg">
    <title>Bezier Curve : Top</title>
    <desc>This is an exported Bezier xml_path from Blender, using the ExportScript by maybites.ch and Craxic</desc>
<path style="fill:none;stroke:#000000;stroke-width:1px;stroke-linecap:butt;stroke-linejoin:miter;stroke-opacity:1" d="M0.3700000047683716,430.36998480558395 C57.03667223453522,430.36997362971306 130.37001013755798,430.36996990442276 170.36998689174652,430.36995500326157 C253.18876326084137,430.3699252009392 310.3701327741146,487.5511121749878 310.37002474069595,570.369992852211 C310.3699725866318,610.3700441122055 310.36998376250267,683.7033671140671 310.3699651360512,740.3700393438339 C350.3699530661106,740.3700393438339 390.36993727087975,740.3700691461563 430.3699252009392,740.3700691461563 C430.3699214756489,683.7033969163895 430.369910299778,610.3700292110443 430.369910299778,570.3700524568558 C430.369910299778,487.5512835383415 487.5510749220848,430.3699214756489 570.3699630498886,430.37002950906754 C610.3700143098831,430.3700816631317 683.7033373117447,430.37003323435783 740.3700095415115,430.37003323435783 C740.3700095415115,390.3700341284275 740.3700095415115,350.3700350224972 740.3700095415115,310.37003591656685 C683.7033373117447,310.37005081772804 610.3699994087219,310.37003964185715 570.3700226545334,310.37008434534073 C487.55121648311615,310.3701774775982 430.3698618710041,253.1889495253563 430.36995500326157,170.37007629871368 C430.36999970674515,130.37003993988037 430.36998480558395,57.036702036857605 430.36999970674515,0.3700298070907593 C390.3700080513954,0.3700298070907593 350.3700163960457,0.3700298070907593 310.37002474069595,0.3700298070907593 C310.37003964185715,57.036702036857605 310.37003964185715,130.37003993988037 310.37006944417953,170.3700166940689 C310.3701327741146,253.18880796432495 253.1889271736145,310.3701700270176 170.3700464963913,310.37006944417953 C130.37001013755798,310.37002101540565 57.036702036857605,310.37003964185715 0.3700298070907593,310.37002474069595 C0.3700298070907593,350.3700126707554 0.3700000047683716,390.3699968755245 0.3700000047683716,430.36998480558395 Z "/>
<path style="fill:none;stroke:#000000;stroke-width:1px;stroke-linecap:butt;stroke-linejoin:miter;stroke-opacity:1" d="M25.37000596523285,317.3700314760208 C25.37000596523285,316.0366979241371 25.37000596523285,314.7033643722534 25.37000596523285,313.3700308203697 C53.70334208011627,313.3700308203697 82.0366781949997,313.3700308203697 110.37001430988312,313.3700308203697 C110.37001430988312,314.7033643722534 110.37001430988312,316.0366979241371 110.37001430988312,317.3700314760208 C82.0366781949997,317.3700314760208 53.70334208011627,317.3700314760208 25.37000596523285,317.3700314760208 Z "/>
<path style="fill:none;stroke:#000000;stroke-width:1px;stroke-linecap:butt;stroke-linejoin:miter;stroke-opacity:1" d="M140.36998569965363,317.3700314760208 C140.36998569965363,316.0366979241371 140.36998569965363,314.7033643722534 140.36998569965363,313.3700308203697 C160.36999642848969,313.3700308203697 180.36999225616455,313.3700308203697 200.3700029850006,313.3700308203697 C200.3700029850006,314.7033643722534 200.3700029850006,316.0366979241371 200.3700029850006,317.3700314760208 C180.36999225616455,317.3700314760208 160.36999642848969,317.3700314760208 140.36998569965363,317.3700314760208 Z "/>
<path style="fill:none;stroke:#000000;stroke-width:1px;stroke-linecap:butt;stroke-linejoin:miter;stroke-opacity:1" d="M230.3700041770935,317.3700314760208 C230.3700041770935,316.0366979241371 230.3700041770935,314.7033643722534 230.3700041770935,313.3700308203697 C250.37001490592957,313.3700308203697 270.37001073360443,313.3700308203697 290.3700214624405,313.3700308203697 C290.3700214624405,314.7033643722534 290.3700214624405,316.0366979241371 290.3700214624405,317.3700314760208 C270.37001073360443,317.3700314760208 250.37001490592957,317.3700314760208 230.3700041770935,317.3700314760208 Z "/>
<path style="fill:none;stroke:#000000;stroke-width:1px;stroke-linecap:butt;stroke-linejoin:miter;stroke-opacity:1" d="M330.36999076604843,317.3700314760208 C330.36999076604843,316.0366979241371 330.36999076604843,314.7033643722534 330.36999076604843,313.3700308203697 C337.0366659760475,313.3700308203697 343.70334304869175,313.3700308203697 350.370020121336,313.3700308203697 C350.370020121336,314.7033643722534 350.370020121336,316.0366979241371 350.370020121336,317.3700314760208 C343.70334304869175,317.3700314760208 337.0366659760475,317.3700314760208 330.36999076604843,317.3700314760208 Z "/>
<path style="fill:none;stroke:#000000;stroke-width:1px;stroke-linecap:butt;stroke-linejoin:miter;stroke-opacity:1" d="M98.37004959583282,330.3700317442417 C99.70337569713593,330.3700317442417 101.03670179843903,330.3700317442417 102.37002789974213,330.3700317442417 C102.37002789974213,340.37003338336945 102.37002789974213,350.370033159852 102.37002789974213,360.3700338676572 C101.03670179843903,360.3700338676572 99.70337569713593,360.3700338676572 98.37004959583282,360.3700338676572 C98.37004959583282,350.370033159852 98.37004959583282,340.37003338336945 98.37004959583282,330.3700317442417 Z "/>
<path style="fill:none;stroke:#000000;stroke-width:1px;stroke-linecap:butt;stroke-linejoin:miter;stroke-opacity:1" d="M98.37004959583282,380.3700343519449 C99.70337569713593,380.3700343519449 101.03673160076141,380.3700343519449 102.37005770206451,380.3700343519449 C102.37005770206451,390.3700341284275 102.37005770206451,400.3700339049101 102.37005770206451,410.37003368139267 C101.03673160076141,410.37003368139267 99.70337569713593,410.37003368139267 98.37004959583282,410.37003368139267 C98.37004959583282,400.3700339049101 98.37004959583282,390.3700341284275 98.37004959583282,380.3700343519449 Z "/>
<path style="fill:none;stroke:#000000;stroke-width:1px;stroke-linecap:butt;stroke-linejoin:miter;stroke-opacity:1" d="M368.3700044453144,315.37003114819527 C368.3700044453144,314.2657805979252 369.26575410645455,313.3700308203697 370.37000477313995,313.3700308203697 C371.47425543982536,313.3700308203697 372.3700051009655,314.2657805979252 372.3700051009655,315.37003114819527 C372.3700051009655,316.47428169846535 371.47425543982536,317.3700314760208 370.37000477313995,317.3700314760208 C369.26575410645455,317.3700314760208 368.3700044453144,316.47428169846535 368.3700044453144,315.37003114819527 Z "/>
<path style="fill:none;stroke:#000000;stroke-width:1px;stroke-linecap:butt;stroke-linejoin:miter;stroke-opacity:1" d="M298.3700078725815,315.37002742290497 C298.3700078725815,314.2657768726349 299.26575392484665,313.3700270950794 300.37000447511673,313.3700270950794 C301.4742550253868,313.3700270950794 302.370001077652,314.2657768726349 302.370001077652,315.37002742290497 C302.370001077652,316.47427797317505 301.4742550253868,317.3700277507305 300.37000447511673,317.3700277507305 C299.26575392484665,317.3700277507305 298.3700078725815,316.47427797317505 298.3700078725815,315.37002742290497 Z "/>
<path style="fill:none;stroke:#000000;stroke-width:1px;stroke-linecap:butt;stroke-linejoin:miter;stroke-opacity:1" d="M213.3700144290924,315.37003859877586 C213.3700144290924,314.2657880485058 214.26576793193817,313.37003454566 215.37001848220825,313.3700382709503 C216.47426903247833,313.3700419962406 217.3700076341629,314.2657917737961 217.3700076341629,315.37003859877586 C217.3700076341629,316.47428542375565 216.47426903247833,317.3700352013111 215.37001848220825,317.3700389266014 C214.26576793193817,317.3700426518917 213.3700144290924,316.47428914904594 213.3700144290924,315.37003859877586 Z "/>
<path style="fill:none;stroke:#000000;stroke-width:1px;stroke-linecap:butt;stroke-linejoin:miter;stroke-opacity:1" d="M123.36999595165253,315.37002742290497 C123.36999595165253,314.2657768726349 124.26574945449829,313.3700233697891 125.37000000476837,313.3700270950794 C126.47425055503845,313.3700308203697 127.36998915672302,314.2657805979252 127.36998915672302,315.37002742290497 C127.36998915672302,316.47427424788475 126.47425055503845,317.3700240254402 125.37000000476837,317.3700277507305 C124.26574945449829,317.3700314760208 123.36999595165253,316.47427797317505 123.36999595165253,315.37002742290497 Z "/>
<path style="fill:none;stroke:#000000;stroke-width:1px;stroke-linecap:butt;stroke-linejoin:miter;stroke-opacity:1" d="M8.369986414909363,315.37003859877586 C8.369986414909363,314.2657880485058 9.265725016593933,313.3700382709503 10.369990468025208,313.3700382709503 C11.474255919456482,313.3700382709503 12.369994521141052,314.2657880485058 12.369994521141052,315.37003859877586 C12.369994521141052,316.47428914904594 11.474255919456482,317.3700389266014 10.369990468025208,317.3700389266014 C9.265725016593933,317.3700389266014 8.369986414909363,316.47428914904594 8.369986414909363,315.37003859877586 Z "/>
<path style="fill:none;stroke:#000000;stroke-width:1px;stroke-linecap:butt;stroke-linejoin:miter;stroke-opacity:1" d="M98.37004959583282,370.37004202604294 C98.37004959583282,369.2657985771075 99.2657881975174,368.370045889169 100.37002384662628,368.3700416982174 C101.47428929805756,368.3700375072658 102.37002789974213,369.26579031161964 102.37002789974213,370.37004202604294 C102.37002789974213,371.47429374046624 101.47428929805756,372.37004654482007 100.37002384662628,372.3700423538685 C99.2657881975174,372.3700381629169 98.37004959583282,371.4742854749784 98.37004959583282,370.37004202604294 Z "/>
<path style="fill:none;stroke:#000000;stroke-width:1px;stroke-linecap:butt;stroke-linejoin:miter;stroke-opacity:1" d="M370.37000477313995,98.37007939815521 C371.4742656843737,98.37007939815521 372.3700169753283,99.26584780216217 372.3700088262558,100.37011325359344 C372.37000067718327,101.47434890270233 371.4742492698133,102.3700875043869 370.37000477313995,102.3700875043869 C369.2657602764666,102.3700875043869 368.37000886909664,101.47434890270233 368.3700007200241,100.37011325359344 C368.3699925709516,99.26584780216217 369.26574386190623,98.37007939815521 370.37000477313995,98.37007939815521 Z "/>
<path style="fill:none;stroke:#000000;stroke-width:1px;stroke-linecap:butt;stroke-linejoin:miter;stroke-opacity:1" d="M642.3699599504471,370.37004947662354 C642.3699599504471,371.47431038785726 641.4741915464401,372.3700616788119 640.3699260950089,372.3700535297394 C639.2656904459,372.37004538066685 638.3699518442154,371.4742939732969 638.3699518442154,370.37004947662354 C638.3699518442154,369.2658049799502 639.2656904459,368.3700535725802 640.3699260950089,368.3700454235077 C641.4741915464401,368.37003727443516 642.3699599504471,369.2657885653898 642.3699599504471,370.37004947662354 Z "/>
<path style="fill:none;stroke:#000000;stroke-width:1px;stroke-linecap:butt;stroke-linejoin:miter;stroke-opacity:1" d="M370.36997497081757,642.3699897527695 C369.26571405958384,642.3699897527695 368.3699627686292,641.4742213487625 368.3699709177017,640.3699558973312 C368.36997906677425,639.2657202482224 369.2657304741442,638.3699816465378 370.36997497081757,638.3699816465378 C371.4742194674909,638.3699816465378 372.3699708748609,639.2657202482224 372.3699790239334,640.3699558973312 C372.36998717300594,641.4742213487625 371.4742358820513,642.3699897527695 370.36997497081757,642.3699897527695 Z "/>
<path style="fill:none;stroke:#000000;stroke-width:1px;stroke-linecap:butt;stroke-linejoin:miter;stroke-opacity:1" d="M410.3700113296509,98.37007939815521 C410.3700150549412,99.70340549945831 410.3700225055218,101.0367614030838 410.3700262308121,102.3700875043869 C400.37002086639404,102.3700875043869 390.370015501976,102.3700875043869 380.370010137558,102.3700875043869 C380.370010137558,101.0367614030838 380.370010137558,99.70340549945831 380.370010137558,98.37007939815521 C390.3700117766857,98.37007939815521 400.37000969052315,98.37007939815521 410.3700113296509,98.37007939815521 Z "/>
<path style="fill:none;stroke:#000000;stroke-width:1px;stroke-linecap:butt;stroke-linejoin:miter;stroke-opacity:1" d="M360.3700143098831,98.3701092004776 C360.3700143098831,99.7034353017807 360.3700143098831,101.0367614030838 360.3700143098831,102.3700875043869 C350.3700126707554,102.3700875043869 340.37001475691795,102.3700875043869 330.3700131177902,102.3700875043869 C330.3700131177902,101.0367614030838 330.3700131177902,99.7034353017807 330.3700131177902,98.3701092004776 C340.37001475691795,98.3701092004776 350.3700126707554,98.3701092004776 360.3700143098831,98.3701092004776 Z "/>
<path style="fill:none;stroke:#000000;stroke-width:1px;stroke-linecap:butt;stroke-linejoin:miter;stroke-opacity:1" d="M642.3699599504471,410.37004113197327 C641.036633849144,410.37004485726357 639.7032779455185,410.37005230784416 638.3699518442154,410.37005603313446 C638.3699518442154,400.37005439400673 638.3699518442154,390.3700564801693 638.3699518442154,380.37005484104156 C639.7032779455185,380.37005484104156 641.036633849144,380.37005484104156 642.3699599504471,380.37005484104156 C642.3699599504471,390.37005089223385 642.3699599504471,400.370045080781 642.3699599504471,410.37004113197327 Z "/>
<path style="fill:none;stroke:#000000;stroke-width:1px;stroke-linecap:butt;stroke-linejoin:miter;stroke-opacity:1" d="M642.3699301481247,360.3700590133667 C641.0366040468216,360.3700590133667 639.7032779455185,360.3700590133667 638.3699518442154,360.3700590133667 C638.3699518442154,350.37005737423897 638.3699518442154,340.37005946040154 638.3699518442154,330.3700578212738 C639.7032779455185,330.3700578212738 641.0366040468216,330.3700578212738 642.3699301481247,330.3700578212738 C642.3699301481247,340.37005946040154 642.3699301481247,350.37005737423897 642.3699301481247,360.3700590133667 Z "/>
<path style="fill:none;stroke:#000000;stroke-width:1px;stroke-linecap:butt;stroke-linejoin:miter;stroke-opacity:1" d="M330.369998216629,642.3699897527695 C330.36999449133873,641.0366636514664 330.36998704075813,639.7033077478409 330.36998331546783,638.3699816465378 C340.3699793666601,638.3699816465378 350.36997355520725,638.3699816465378 360.36996960639954,638.3699816465378 C360.36996960639954,639.7033077478409 360.36996960639954,641.0366636514664 360.36996960639954,642.3699897527695 C350.3699791431427,642.3699897527695 340.36998867988586,642.3699897527695 330.369998216629,642.3699897527695 Z "/>
<path style="fill:none;stroke:#000000;stroke-width:1px;stroke-linecap:butt;stroke-linejoin:miter;stroke-opacity:1" d="M380.3699654340744,642.3699599504471 C380.3699654340744,641.036633849144 380.3699654340744,639.7033077478409 380.3699654340744,638.3699816465378 C390.36996707320213,638.3699816465378 400.36996498703957,638.3699816465378 410.3699666261673,638.3699816465378 C410.3699666261673,639.7033077478409 410.3699666261673,641.0366040468216 410.3699666261673,642.3699301481247 C400.36996498703957,642.3699301481247 390.36996707320213,642.3699599504471 380.3699654340744,642.3699599504471 Z "/>
<path style="fill:none;stroke:#000000;stroke-width:1px;stroke-linecap:butt;stroke-linejoin:miter;stroke-opacity:1" d="M715.3700035810471,313.3700606226921 C715.3700035810471,314.7033941745758 715.3700035810471,316.0367277264595 715.3700035810471,317.3700612783432 C687.0366674661636,317.3700575530529 658.7033313512802,317.3700575530529 630.3699952363968,317.3700538277626 C630.3699952363968,316.0367202758789 630.3699952363968,314.7033867239952 630.3699952363968,313.3700531721115 C658.7033313512802,313.3700568974018 687.0366674661636,313.3700568974018 715.3700035810471,313.3700606226921 Z "/>
<path style="fill:none;stroke:#000000;stroke-width:1px;stroke-linecap:butt;stroke-linejoin:miter;stroke-opacity:1" d="M600.3700238466263,313.3700494468212 C600.3700238466263,314.7033829987049 600.3700238466263,316.0367165505886 600.3700238466263,317.3700501024723 C580.3700131177902,317.3700501024723 560.3700172901154,317.370046377182 540.3700065612793,317.370046377182 C540.3700065612793,316.0367128252983 540.3700065612793,314.7033792734146 540.3700065612793,313.3700457215309 C560.3700172901154,313.3700457215309 580.3700131177902,313.3700494468212 600.3700238466263,313.3700494468212 Z "/>
<path style="fill:none;stroke:#000000;stroke-width:1px;stroke-linecap:butt;stroke-linejoin:miter;stroke-opacity:1" d="M510.3700053691864,313.3700419962406 C510.3700053691864,314.7033755481243 510.3700053691864,316.036709100008 510.3700053691864,317.3700426518917 C490.36999464035034,317.3700426518917 470.3699988126755,317.3700389266014 450.3699880838394,317.3700389266014 C450.3699880838394,316.0367053747177 450.3699880838394,314.703371822834 450.3699880838394,313.3700382709503 C470.3699988126755,313.3700382709503 490.36999464035034,313.3700419962406 510.3700053691864,313.3700419962406 Z "/>
<path style="fill:none;stroke:#000000;stroke-width:1px;stroke-linecap:butt;stroke-linejoin:miter;stroke-opacity:1" d="M410.3700187802315,313.37003454566 C410.3700187802315,314.7033680975437 410.3700187802315,316.0367016494274 410.3700187802315,317.3700352013111 C403.7033435702324,317.3700352013111 397.03666649758816,317.3700314760208 390.3699894249439,317.3700314760208 C390.3699894249439,316.0366979241371 390.3699894249439,314.7033643722534 390.3699894249439,313.3700308203697 C397.03666649758816,313.3700308203697 403.7033435702324,313.37003454566 410.3700187802315,313.37003454566 Z "/>
<path style="fill:none;stroke:#000000;stroke-width:1px;stroke-linecap:butt;stroke-linejoin:miter;stroke-opacity:1" d="M442.3700016736984,315.37004232406616 C442.3700016736984,316.47429287433624 441.47425562143326,317.3700426518917 440.3700050711632,317.3700426518917 C439.2657545208931,317.3700426518917 438.37000846862793,316.47429287433624 438.37000846862793,315.37004232406616 C438.37000846862793,314.2657917737961 439.2657545208931,313.3700419962406 440.3700050711632,313.3700419962406 C441.47425562143326,313.3700419962406 442.3700016736984,314.2657917737961 442.3700016736984,315.37004232406616 Z "/>
<path style="fill:none;stroke:#000000;stroke-width:1px;stroke-linecap:butt;stroke-linejoin:miter;stroke-opacity:1" d="M527.3699951171875,315.37003859877586 C527.3699951171875,316.47428914904594 526.4742416143417,317.3700426518917 525.3699910640717,317.3700389266014 C524.2657405138016,317.3700352013111 523.370001912117,316.47428542375565 523.370001912117,315.37003859877586 C523.370001912117,314.2657917737961 524.2657405138016,313.3700419962406 525.3699910640717,313.3700382709503 C526.4742416143417,313.37003454566 527.3699951171875,314.2657880485058 527.3699951171875,315.37003859877586 Z "/>
<path style="fill:none;stroke:#000000;stroke-width:1px;stroke-linecap:butt;stroke-linejoin:miter;stroke-opacity:1" d="M617.3700135946274,315.37005722522736 C617.3700135946274,316.47430777549744 616.4742600917816,317.3700612783432 615.3700095415115,317.3700575530529 C614.2657589912415,317.3700538277626 613.3700203895569,316.47430405020714 613.3700203895569,315.37005722522736 C613.3700203895569,314.2658104002476 614.2657589912415,313.3700606226921 615.3700095415115,313.3700568974018 C616.4742600917816,313.3700531721115 617.3700135946274,314.2658066749573 617.3700135946274,315.37005722522736 Z "/>
<path style="fill:none;stroke:#000000;stroke-width:1px;stroke-linecap:butt;stroke-linejoin:miter;stroke-opacity:1" d="M732.3699933290482,315.37005349993706 C732.3699933290482,316.47430405020714 731.4742547273636,317.3700538277626 730.3699892759323,317.3700538277626 C729.265723824501,317.3700538277626 728.3699852228165,316.47430405020714 728.3699852228165,315.37005349993706 C728.3699852228165,314.265802949667 729.265723824501,313.3700531721115 730.3699892759323,313.3700531721115 C731.4742547273636,313.3700531721115 732.3699933290482,314.265802949667 732.3699933290482,315.37005349993706 Z "/>
<path style="fill:none;stroke:#000000;stroke-width:1px;stroke-linecap:butt;stroke-linejoin:miter;stroke-opacity:1" d="M423.3699780702591,25.370035767555237 C424.7033153474331,25.370035767555237 426.0366488993168,25.370035767555237 427.3699861764908,25.370035767555237 C427.3699861764908,53.70337188243866 427.3699861764908,82.03670799732208 427.3699861764908,110.3700441122055 C426.0366488993168,110.3700441122055 424.7033153474331,110.3700441122055 423.3699780702591,110.3700441122055 C423.3699780702591,82.03670799732208 423.3699780702591,53.70337188243866 423.3699780702591,25.370035767555237 Z "/>
<path style="fill:none;stroke:#000000;stroke-width:1px;stroke-linecap:butt;stroke-linejoin:miter;stroke-opacity:1" d="M423.3699780702591,140.370015501976 C424.7033153474331,140.370015501976 426.0366488993168,140.370015501976 427.3699861764908,140.370015501976 C427.3699899017811,160.37002623081207 427.3699973523617,180.37002205848694 427.370001077652,200.370032787323 C426.036663800478,200.370032787323 424.7033302485943,200.370032787323 423.3699929714203,200.370032787323 C423.36998924613,180.37002205848694 423.3699817955494,160.37002623081207 423.3699780702591,140.370015501976 Z "/>
<path style="fill:none;stroke:#000000;stroke-width:1px;stroke-linecap:butt;stroke-linejoin:miter;stroke-opacity:1" d="M423.3699929714203,230.3700339794159 C424.7033302485943,230.3700339794159 426.036663800478,230.3700339794159 427.370001077652,230.3700339794159 C427.370001077652,250.37003725767136 427.370001077652,270.3700405359268 427.370001077652,290.3700438141823 C426.0366712510586,290.3700438141823 424.7033376991749,290.3700438141823 423.3700078725815,290.3700438141823 C423.3700041472912,270.3700405359268 423.3699966967106,250.37003725767136 423.3699929714203,230.3700339794159 Z "/>
<path style="fill:none;stroke:#000000;stroke-width:1px;stroke-linecap:butt;stroke-linejoin:miter;stroke-opacity:1" d="M423.3700004220009,330.3700168430805 C424.7033376991749,330.3700168430805 426.0366712510586,330.3700168430805 427.3700085282326,330.3700168430805 C427.3700085282326,337.0366920530796 427.3700122535229,343.70336912572384 427.3700122535229,350.3700461983681 C426.0366749763489,350.3700461983681 424.7033414244652,350.3700461983681 423.3700041472912,350.3700461983681 C423.3700041472912,343.70336912572384 423.3700004220009,337.0366920530796 423.3700004220009,330.3700168430805 Z "/>
<path style="fill:none;stroke:#000000;stroke-width:1px;stroke-linecap:butt;stroke-linejoin:miter;stroke-opacity:1" d="M425.370008200407,368.3700305223465 C426.4742587506771,368.3700305223465 427.3700085282326,369.26578018348664 427.3700085282326,370.37003085017204 C427.3700085282326,371.47428151685745 426.4742587506771,372.3700311779976 425.370008200407,372.3700311779976 C424.26575765013695,372.3700311779976 423.3700078725815,371.47428151685745 423.3700078725815,370.37003085017204 C423.3700078725815,369.26578018348664 424.26575765013695,368.3700305223465 425.370008200407,368.3700305223465 Z "/>
<path style="fill:none;stroke:#000000;stroke-width:1px;stroke-linecap:butt;stroke-linejoin:miter;stroke-opacity:1" d="M425.3700119256973,298.3700302243233 C426.4742587506771,298.3700302243233 427.3700085282326,299.26577627658844 427.3700085282326,300.3700268268585 C427.3700085282326,301.4742773771286 426.4742587506771,302.37002342939377 425.3700119256973,302.37002342939377 C424.26576137542725,302.37002342939377 423.3700078725815,301.4742773771286 423.3700078725815,300.3700268268585 C423.3700078725815,299.26577627658844 424.26576137542725,298.3700302243233 425.3700119256973,298.3700302243233 Z "/>
<path style="fill:none;stroke:#000000;stroke-width:1px;stroke-linecap:butt;stroke-linejoin:miter;stroke-opacity:1" d="M425.36999702453613,213.3700442314148 C426.4742475748062,213.3700442314148 427.3699899017811,214.26579773426056 427.3699861764908,215.37004828453064 C427.3699824512005,216.47429883480072 426.474232673645,217.3700374364853 425.36998212337494,217.3700374364853 C424.26573902368546,217.3700374364853 423.3699929714203,216.47429883480072 423.3699929714203,215.37004828453064 C423.3699929714203,214.26579773426056 424.26574274897575,213.3700442314148 425.36999702453613,213.3700442314148 Z "/>
<path style="fill:none;stroke:#000000;stroke-width:1px;stroke-linecap:butt;stroke-linejoin:miter;stroke-opacity:1" d="M425.36998212337494,123.37002575397491 C426.4742363989353,123.37002575397491 427.3699861764908,124.26577925682068 427.3699861764908,125.37002980709076 C427.3699861764908,126.47428035736084 426.4742401242256,127.37001895904541 425.36999702453613,127.37001895904541 C424.26574274897575,127.37001895904541 423.3699817955494,126.47428035736084 423.3699780702591,125.37002980709076 C423.3699743449688,124.26577925682068 424.26572784781456,123.37002575397491 425.36998212337494,123.37002575397491 Z "/>
<path style="fill:none;stroke:#000000;stroke-width:1px;stroke-linecap:butt;stroke-linejoin:miter;stroke-opacity:1" d="M425.36998212337494,8.37001621723175 C426.4742363989353,8.37001621723175 427.3699861764908,9.26575481891632 427.3699861764908,10.370020270347595 C427.3699861764908,11.47428572177887 426.4742363989353,12.37002432346344 425.36998212337494,12.37002432346344 C424.26572784781456,12.37002432346344 423.3699780702591,11.47428572177887 423.3699780702591,10.370020270347595 C423.3699780702591,9.26575481891632 424.26572784781456,8.37001621723175 425.36998212337494,8.37001621723175 Z "/>
<path style="fill:none;stroke:#000000;stroke-width:1px;stroke-linecap:butt;stroke-linejoin:miter;stroke-opacity:1" d="M427.37001597881317,715.3700333833694 C426.0366787016392,715.3700333833694 424.7033451497555,715.3700333833694 423.3700078725815,715.3700333833694 C423.3700078725815,687.036697268486 423.3700078725815,658.7033611536026 423.3700078725815,630.3700250387192 C424.7033376991749,630.3700250387192 426.0366712510586,630.3700250387192 427.370001077652,630.3700250387192 C427.3700048029423,658.7033611536026 427.3700122535229,687.036697268486 427.37001597881317,715.3700333833694 Z "/>
<path style="fill:none;stroke:#000000;stroke-width:1px;stroke-linecap:butt;stroke-linejoin:miter;stroke-opacity:1" d="M427.37001597881317,600.3700536489487 C426.0366787016392,600.3700536489487 424.7033451497555,600.3700387477875 423.3700078725815,600.3700387477875 C423.3700078725815,580.3700429201126 423.3700078725815,560.3700321912766 423.3700078725815,540.3700363636017 C424.7033376991749,540.3700363636017 426.0366712510586,540.3700512647629 427.370001077652,540.3700512647629 C427.3700048029423,560.3700470924377 427.3700122535229,580.3700578212738 427.37001597881317,600.3700536489487 Z "/>
<path style="fill:none;stroke:#000000;stroke-width:1px;stroke-linecap:butt;stroke-linejoin:miter;stroke-opacity:1" d="M427.3700085282326,510.3700351715088 C426.0366749763489,510.3700351715088 424.7033414244652,510.3700351715088 423.3700078725815,510.3700351715088 C423.3700078725815,490.37002444267273 423.3700078725815,470.37002116441727 423.3700078725815,450.3700104355812 C424.7033414244652,450.3700104355812 426.0366749763489,450.3700029850006 427.3700085282326,450.3700029850006 C427.3700085282326,470.37001371383667 427.3700085282326,490.37002444267273 427.3700085282326,510.3700351715088 Z "/>
<path style="fill:none;stroke:#000000;stroke-width:1px;stroke-linecap:butt;stroke-linejoin:miter;stroke-opacity:1" d="M427.3700085282326,410.37004485726357 C426.0366749763489,410.37004485726357 424.7033414244652,410.37004485726357 423.3700078725815,410.37004485726357 C423.3700078725815,403.7033696472645 423.3700078725815,397.03669257462025 423.3700078725815,390.370015501976 C424.7033414244652,390.370015501976 426.0366749763489,390.370015501976 427.3700085282326,390.370015501976 C427.3700085282326,397.03669257462025 427.3700085282326,403.7033696472645 427.3700085282326,410.37004485726357 Z "/>
<path style="fill:none;stroke:#000000;stroke-width:1px;stroke-linecap:butt;stroke-linejoin:miter;stroke-opacity:1" d="M425.37000074982643,442.3700165748596 C424.26575392484665,442.3700165748596 423.3700004220009,441.47427797317505 423.3700004220009,440.37002742290497 C423.3700004220009,439.2657768726349 424.26575019955635,438.3700308203697 425.37000074982643,438.3700308203697 C426.4742513000965,438.3700308203697 427.370001077652,439.2657768726349 427.370001077652,440.37002742290497 C427.370001077652,441.47427797317505 426.4742475748062,442.3700165748596 425.37000074982643,442.3700165748596 Z "/>
<path style="fill:none;stroke:#000000;stroke-width:1px;stroke-linecap:butt;stroke-linejoin:miter;stroke-opacity:1" d="M425.3700119256973,527.3700249195099 C424.26575392484665,527.3700249195099 423.3700004220009,526.4742565155029 423.3700078725815,525.3700059652328 C423.3700153231621,524.2657554149628 424.26576882600784,523.3700317144394 425.3700119256973,523.3700317144394 C426.4742587506771,523.3700317144394 427.3700122535229,524.265770316124 427.37001597881317,525.370020866394 C427.37001970410347,526.4742714166641 426.4742662012577,527.3700249195099 425.3700119256973,527.3700249195099 Z "/>
<path style="fill:none;stroke:#000000;stroke-width:1px;stroke-linecap:butt;stroke-linejoin:miter;stroke-opacity:1" d="M425.36999702453613,617.3700433969498 C424.26574647426605,617.3700433969498 423.3700078725815,616.474289894104 423.3700078725815,615.3700393438339 C423.3700078725815,614.2657887935638 424.26574647426605,613.3700352907181 425.36999702453613,613.3700352907181 C426.4742513000965,613.3700352907181 427.370001077652,614.2657887935638 427.370001077652,615.3700393438339 C427.370001077652,616.474289894104 426.4742513000965,617.3700433969498 425.36999702453613,617.3700433969498 Z "/>
<path style="fill:none;stroke:#000000;stroke-width:1px;stroke-linecap:butt;stroke-linejoin:miter;stroke-opacity:1" d="M425.3700119256973,732.3700231313705 C424.26575765013695,732.3700231313705 423.3700078725815,731.474284529686 423.3700078725815,730.3700190782547 C423.3700078725815,729.2657536268234 424.26575765013695,728.3700150251389 425.3700119256973,728.3700150251389 C426.4742662012577,728.3700150251389 427.37001597881317,729.2657536268234 427.37001597881317,730.3700190782547 C427.37001597881317,731.474284529686 426.4742662012577,732.3700231313705 425.3700119256973,732.3700231313705 Z "/>
<path style="fill:none;stroke:#000000;stroke-width:1px;stroke-linecap:butt;stroke-linejoin:miter;stroke-opacity:1" d="M715.3700035810471,423.3699780702591 C715.3700035810471,424.7033153474331 715.3700035810471,426.0366488993168 715.3700035810471,427.3699861764908 C687.0366674661636,427.3699861764908 658.7033313512802,427.3699861764908 630.3699952363968,427.3699861764908 C630.3699952363968,426.0366488993168 630.3699952363968,424.7033153474331 630.3699952363968,423.3699780702591 C658.7033313512802,423.3699780702591 687.0366674661636,423.3699780702591 715.3700035810471,423.3699780702591 Z "/>
<path style="fill:none;stroke:#000000;stroke-width:1px;stroke-linecap:butt;stroke-linejoin:miter;stroke-opacity:1" d="M600.3700238466263,423.3699780702591 C600.3700238466263,424.7033153474331 600.3700238466263,426.0366488993168 600.3700238466263,427.3699861764908 C580.3700131177902,427.3699973523617 560.3700172901154,427.3700048029423 540.3700065612793,427.37001597881317 C540.3700065612793,426.0366787016392 540.3700065612793,424.7033451497555 540.3700065612793,423.3700078725815 C560.3700172901154,423.3699966967106 580.3700131177902,423.36998924613 600.3700238466263,423.3699780702591 Z "/>
<path style="fill:none;stroke:#000000;stroke-width:1px;stroke-linecap:butt;stroke-linejoin:miter;stroke-opacity:1" d="M510.3700053691864,423.3700078725815 C510.3700053691864,424.7033451497555 510.3700053691864,426.0366787016392 510.3700053691864,427.37001597881317 C490.37000209093094,427.37001970410347 470.3700062632561,427.37001970410347 450.3700029850006,427.37002342939377 C450.3700029850006,426.03669360280037 450.3700029850006,424.7033600509167 450.3700029850006,423.3700302243233 C470.3700062632561,423.3700227737427 490.37000209093094,423.3700153231621 510.3700053691864,423.3700078725815 Z "/>
<path style="fill:none;stroke:#000000;stroke-width:1px;stroke-linecap:butt;stroke-linejoin:miter;stroke-opacity:1" d="M410.3700262308121,423.370026499033 C410.3700262308121,424.70336377620697 410.3700262308121,426.03669732809067 410.3700262308121,427.37003460526466 C403.703351020813,427.37003460526466 397.03667394816875,427.37003833055496 390.3699968755245,427.37003833055496 C390.3699968755245,426.03670105338097 390.3699968755245,424.70336750149727 390.3699968755245,423.3700302243233 C397.03667394816875,423.3700302243233 403.703351020813,423.370026499033 410.3700262308121,423.370026499033 Z "/>
<path style="fill:none;stroke:#000000;stroke-width:1px;stroke-linecap:butt;stroke-linejoin:miter;stroke-opacity:1" d="M372.3700125515461,425.3700380027294 C372.3700125515461,426.4742885529995 371.47426289040595,427.37003833055496 370.37001222372055,427.37003833055496 C369.26576155703515,427.37003833055496 368.370011895895,426.4742885529995 368.370011895895,425.3700380027294 C368.370011895895,424.26578745245934 369.26576155703515,423.37003767490387 370.37001222372055,423.37003767490387 C371.47426289040595,423.37003767490387 372.3700125515461,424.26578745245934 372.3700125515461,425.3700380027294 Z "/>
<path style="fill:none;stroke:#000000;stroke-width:1px;stroke-linecap:butt;stroke-linejoin:miter;stroke-opacity:1" d="M442.3700165748596,425.3700342774391 C442.3700165748596,426.4742811024189 441.47427052259445,427.37003087997437 440.37001997232437,427.37003087997437 C439.2657694220543,427.37003087997437 438.3700233697891,426.4742811024189 438.3700233697891,425.3700342774391 C438.3700233697891,424.26578745245934 439.2657694220543,423.37003767490387 440.37001997232437,423.37003767490387 C441.47427052259445,423.37003767490387 442.3700165748596,424.26578745245934 442.3700165748596,425.3700342774391 Z "/>
<path style="fill:none;stroke:#000000;stroke-width:1px;stroke-linecap:butt;stroke-linejoin:miter;stroke-opacity:1" d="M527.3699951171875,425.3700119256973 C527.3699951171875,426.4742624759674 526.4742416143417,427.3700048029423 525.3699910640717,427.370001077652 C524.2657405138016,427.3699973523617 523.370001912117,426.4742475748062 523.370001912117,425.36999702453613 C523.370001912117,424.26575392484665 524.2657405138016,423.3700078725815 525.3699910640717,423.3700078725815 C526.4742416143417,423.3700078725815 527.3699951171875,424.26575765013695 527.3699951171875,425.3700119256973 Z "/>
<path style="fill:none;stroke:#000000;stroke-width:1px;stroke-linecap:butt;stroke-linejoin:miter;stroke-opacity:1" d="M617.3700135946274,425.36998212337494 C617.3700135946274,426.4742363989353 616.4742600917816,427.3699861764908 615.3700095415115,427.3699861764908 C614.2657589912415,427.3699861764908 613.3700203895569,426.4742401242256 613.3700203895569,425.36999702453613 C613.3700203895569,424.26574274897575 614.2657589912415,423.3699817955494 615.3700095415115,423.3699780702591 C616.4742600917816,423.3699743449688 617.3700135946274,424.26572784781456 617.3700135946274,425.36998212337494 Z "/>
<path style="fill:none;stroke:#000000;stroke-width:1px;stroke-linecap:butt;stroke-linejoin:miter;stroke-opacity:1" d="M732.3700231313705,425.36998212337494 C732.3700231313705,426.4742363989353 731.474284529686,427.3699861764908 730.3700190782547,427.3699861764908 C729.2657536268234,427.3699861764908 728.3700150251389,426.4742363989353 728.3700150251389,425.36998212337494 C728.3700150251389,424.26572784781456 729.2657536268234,423.3699780702591 730.3700190782547,423.3699780702591 C731.474284529686,423.3699780702591 732.3700231313705,424.26572784781456 732.3700231313705,425.36998212337494 Z "/>
<path style="fill:none;stroke:#000000;stroke-width:1px;stroke-linecap:butt;stroke-linejoin:miter;stroke-opacity:1" d="M25.37000596523285,427.37007558345795 C25.37000596523285,426.03673830628395 25.37000596523285,424.70340475440025 25.37000596523285,423.37006747722626 C53.70334208011627,423.37006375193596 82.0366781949997,423.37005630135536 110.37001430988312,423.37005257606506 C110.37001430988312,424.70338240265846 110.37001430988312,426.03671595454216 110.37001430988312,427.37004578113556 C82.0366781949997,427.37005695700645 53.70334208011627,427.37006440758705 25.37000596523285,427.37007558345795 Z "/>
<path style="fill:none;stroke:#000000;stroke-width:1px;stroke-linecap:butt;stroke-linejoin:miter;stroke-opacity:1" d="M140.36998569965363,427.37006068229675 C140.37000060081482,426.03672340512276 140.37000060081482,424.70338985323906 140.370015501976,423.37005257606506 C160.37001132965088,423.37005257606506 180.37000715732574,423.37005257606506 200.3700029850006,423.37005257606506 C200.3700029850006,424.70338240265846 200.36998808383942,426.03671595454216 200.36998808383942,427.37004578113556 C180.36999225616455,427.37004950642586 160.3699815273285,427.37005695700645 140.36998569965363,427.37006068229675 Z "/>
<path style="fill:none;stroke:#000000;stroke-width:1px;stroke-linecap:butt;stroke-linejoin:miter;stroke-opacity:1" d="M230.3700190782547,427.37004578113556 C230.3700190782547,426.03671595454216 230.3700041770935,424.70338240265846 230.3700041770935,423.37005257606506 C250.37001490592957,423.37004885077477 270.3700256347656,423.37004885077477 290.3700363636017,423.37004512548447 C290.3700363636017,424.70337867736816 290.3700438141823,426.03671222925186 290.3700438141823,427.37004578113556 C270.3700330853462,427.37004578113556 250.37002980709076,427.37004578113556 230.3700190782547,427.37004578113556 Z "/>
<path style="fill:none;stroke:#000000;stroke-width:1px;stroke-linecap:butt;stroke-linejoin:miter;stroke-opacity:1" d="M330.369998216629,427.37004205584526 C330.369998216629,426.03670850396156 330.369998216629,424.70337495207787 330.369998216629,423.37004140019417 C337.0366734266281,423.37004140019417 343.7033486366272,423.37003767490387 350.3700238466263,423.37003767490387 C350.37002570927143,424.70337122678757 350.37002943456173,426.03670477867126 350.3700312972069,427.37003833055496 C343.7033523619175,427.37003833055496 337.0366771519184,427.37004205584526 330.369998216629,427.37004205584526 Z "/>
<path style="fill:none;stroke:#000000;stroke-width:1px;stroke-linecap:butt;stroke-linejoin:miter;stroke-opacity:1" d="M298.3700227737427,425.3700342774391 C298.3700227737427,424.26578372716904 299.26576882600784,423.37003394961357 300.3700193762779,423.37003394961357 C301.474269926548,423.37003394961357 302.37001597881317,424.26578372716904 302.37001597881317,425.3700342774391 C302.37001597881317,426.4742811024189 301.4742773771286,427.37003087997437 300.3700268268585,427.37003460526466 C299.26577627658844,427.37003833055496 298.3700227737427,426.4742848277092 298.3700227737427,425.3700342774391 Z "/>
<path style="fill:none;stroke:#000000;stroke-width:1px;stroke-linecap:butt;stroke-linejoin:miter;stroke-opacity:1" d="M213.3700144290924,425.3700566291809 C213.3700144290924,424.26579862833023 214.26578283309937,423.37004512548447 215.37003338336945,423.37005257606506 C216.47428393363953,423.37006002664566 217.3700076341629,424.2658135294914 217.3700076341629,425.3700566291809 C217.3700076341629,426.4743034541607 216.47426903247833,427.37005695700645 215.37001848220825,427.37006068229675 C214.26576793193817,427.37006440758705 213.3700144290924,426.4743109047413 213.3700144290924,425.3700566291809 Z "/>
<path style="fill:none;stroke:#000000;stroke-width:1px;stroke-linecap:butt;stroke-linejoin:miter;stroke-opacity:1" d="M123.37001085281372,425.3700417280197 C123.37001085281372,424.26579862833023 124.26574945449829,423.37005630135536 125.37000000476837,423.37005257606506 C126.47425055503845,423.37004885077477 127.37001895904541,424.26578745245934 127.37001895904541,425.3700417280197 C127.37001895904541,426.4742960035801 126.47426545619965,427.37004578113556 125.37001490592957,427.37004578113556 C124.26576435565948,427.37004578113556 123.37001085281372,426.4742960035801 123.37001085281372,425.3700417280197 Z "/>
<path style="fill:none;stroke:#000000;stroke-width:1px;stroke-linecap:butt;stroke-linejoin:miter;stroke-opacity:1" d="M8.37001621723175,425.3700715303421 C8.37001621723175,424.2658172547817 9.26575481891632,423.37006747722626 10.370020270347595,423.37006747722626 C11.47428572177887,423.37006747722626 12.37002432346344,424.2658172547817 12.37002432346344,425.3700715303421 C12.37002432346344,426.4743258059025 11.47428572177887,427.37007558345795 10.370020270347595,427.37007558345795 C9.26575481891632,427.37007558345795 8.37001621723175,426.4743258059025 8.37001621723175,425.3700715303421 Z "/>
<path style="fill:none;stroke:#000000;stroke-width:1px;stroke-linecap:butt;stroke-linejoin:miter;stroke-opacity:1" d="M317.3700910806656,715.3700333833694 C316.0367538034916,715.3700333833694 314.7034202516079,715.3700333833694 313.3700829744339,715.3700333833694 C313.3700829744339,687.036697268486 313.3700829744339,658.7033611536026 313.3700829744339,630.3700250387192 C314.7034202516079,630.3700250387192 316.0367538034916,630.3700250387192 317.3700910806656,630.3700250387192 C317.3700910806656,658.7033611536026 317.3700910806656,687.036697268486 317.3700910806656,715.3700333833694 Z "/>
<path style="fill:none;stroke:#000000;stroke-width:1px;stroke-linecap:butt;stroke-linejoin:miter;stroke-opacity:1" d="M317.3700910806656,600.3700536489487 C316.0367538034916,600.3700536489487 314.7034202516079,600.3700536489487 313.3700829744339,600.3700536489487 C313.3700680732727,580.3700429201126 313.3700531721115,560.3700470924377 313.3700382709503,540.3700363636017 C314.7033755481243,540.3700363636017 316.036709100008,540.3700363636017 317.370046377182,540.3700363636017 C317.3700612783432,560.3700470924377 317.3700761795044,580.3700429201126 317.3700910806656,600.3700536489487 Z "/>
<path style="fill:none;stroke:#000000;stroke-width:1px;stroke-linecap:butt;stroke-linejoin:miter;stroke-opacity:1" d="M317.370046377182,510.3700351715088 C316.036709100008,510.3700351715088 314.7033755481243,510.3700351715088 313.3700382709503,510.3700351715088 C313.37003454566,490.3700393438339 313.3700270950794,470.37004351615906 313.3700233697891,450.3700402379036 C314.7033531963825,450.3700402379036 316.0366867482662,450.3700402379036 317.3700165748596,450.3700402379036 C317.3700277507305,470.37004351615906 317.3700352013111,490.3700393438339 317.370046377182,510.3700351715088 Z "/>
<path style="fill:none;stroke:#000000;stroke-width:1px;stroke-linecap:butt;stroke-linejoin:miter;stroke-opacity:1" d="M317.3700165748596,410.37005975842476 C316.0366792976856,410.37005975842476 314.7033457458019,410.37005975842476 313.37000846862793,410.37005975842476 C313.37000846862793,403.7033845484257 313.37000474333763,397.03670747578144 313.37000474333763,390.3700304031372 C314.7033420205116,390.3700304031372 316.0366755723953,390.3700304031372 317.3700128495693,390.3700304031372 C317.3700128495693,397.03670747578144 317.3700165748596,403.7033845484257 317.3700165748596,410.37005975842476 Z "/>
<path style="fill:none;stroke:#000000;stroke-width:1px;stroke-linecap:butt;stroke-linejoin:miter;stroke-opacity:1" d="M315.3700013458729,372.3700460791588 C314.2657507956028,372.3700460791588 313.37000101804733,371.47429641801864 313.37000101804733,370.37004575133324 C313.37000101804733,369.26579508464783 314.2657507956028,368.3700454235077 315.3700013458729,368.3700454235077 C316.47425189614296,368.3700454235077 317.3700016736984,369.26579508464783 317.3700016736984,370.37004575133324 C317.3700016736984,371.47429641801864 316.47425189614296,372.3700460791588 315.3700013458729,372.3700460791588 Z "/>
<path style="fill:none;stroke:#000000;stroke-width:1px;stroke-linecap:butt;stroke-linejoin:miter;stroke-opacity:1" d="M315.3700125217438,442.3700538277626 C314.265765696764,442.3700538277626 313.3700159192085,441.47430777549744 313.3700159192085,440.37005722522736 C313.3700159192085,439.2658066749573 314.265765696764,438.3700606226921 315.3700125217438,438.3700606226921 C316.47425934672356,438.3700606226921 317.370009124279,439.2658066749573 317.370009124279,440.37005722522736 C317.370009124279,441.47430777549744 316.47425934672356,442.3700538277626 315.3700125217438,442.3700538277626 Z "/>
<path style="fill:none;stroke:#000000;stroke-width:1px;stroke-linecap:butt;stroke-linejoin:miter;stroke-opacity:1" d="M315.37004232406616,527.3700249195099 C314.2657917737961,527.3700249195099 313.3700494468212,526.4742714166641 313.3700531721115,525.370020866394 C313.3700568974018,524.265770316124 314.2658066749573,523.3700317144394 315.37005722522736,523.3700317144394 C316.47430032491684,523.3700317144394 317.370046377182,524.265770316124 317.370046377182,525.370020866394 C317.370046377182,526.4742714166641 316.47429659962654,527.3700249195099 315.37004232406616,527.3700249195099 Z "/>
<path style="fill:none;stroke:#000000;stroke-width:1px;stroke-linecap:butt;stroke-linejoin:miter;stroke-opacity:1" d="M315.37008702754974,617.3700433969498 C314.26583275198936,617.3700433969498 313.3700829744339,616.474289894104 313.3700829744339,615.3700393438339 C313.3700829744339,614.2657887935638 314.26582902669907,613.3700501918793 315.37007212638855,613.3700501918793 C316.47432640194893,613.3700501918793 317.3700873553753,614.2657887935638 317.3700910806656,615.3700393438339 C317.3700948059559,616.474289894104 316.4743413031101,617.3700433969498 315.37008702754974,617.3700433969498 Z "/>
<path style="fill:none;stroke:#000000;stroke-width:1px;stroke-linecap:butt;stroke-linejoin:miter;stroke-opacity:1" d="M315.37008702754974,732.3700529336929 C314.26583275198936,732.3700529336929 313.3700829744339,731.4743143320084 313.3700829744339,730.3700488805771 C313.3700829744339,729.2657834291458 314.26583275198936,728.3700448274612 315.37008702754974,728.3700448274612 C316.4743413031101,728.3700448274612 317.3700910806656,729.2657834291458 317.3700910806656,730.3700488805771 C317.3700910806656,731.4743143320084 316.4743413031101,732.3700529336929 315.37008702754974,732.3700529336929 Z "/>
<path style="fill:none;stroke:#000000;stroke-width:1px;stroke-linecap:butt;stroke-linejoin:miter;stroke-opacity:1" d="M313.36993396282196,25.370035767555237 C314.70327123999596,25.370035767555237 316.03660479187965,25.370035767555237 317.36994206905365,25.370035767555237 C317.36995324492455,53.70337188243866 317.36996069550514,82.03670799732208 317.36997187137604,110.3700441122055 C316.03664204478264,110.3700441122055 314.70330849289894,110.3700441122055 313.36997866630554,110.3700441122055 C313.36996376514435,82.03670799732208 313.36994886398315,53.70337188243866 313.36993396282196,25.370035767555237 Z "/>
<path style="fill:none;stroke:#000000;stroke-width:1px;stroke-linecap:butt;stroke-linejoin:miter;stroke-opacity:1" d="M313.36996376514435,140.37000060081482 C314.70330104231834,140.370015501976 316.03663459420204,140.3700453042984 317.36997187137604,140.3700602054596 C317.36997187137604,160.37005603313446 317.36997187137604,180.37003695964813 317.36997187137604,200.370032787323 C316.03664204478264,200.370032787323 314.70330849289894,200.3700178861618 313.36997866630554,200.3700178861618 C313.36997494101524,180.37000715732574 313.36996749043465,160.37001132965088 313.36996376514435,140.37000060081482 Z "/>
<path style="fill:none;stroke:#000000;stroke-width:1px;stroke-linecap:butt;stroke-linejoin:miter;stroke-opacity:1" d="M313.36997866630554,230.3700488805771 C314.70330849289894,230.3700488805771 316.03664204478264,230.3700339794159 317.36997187137604,230.3700339794159 C317.36997559666634,250.37004470825195 317.36998304724693,270.370055437088 317.36998677253723,290.37007361650467 C316.03665322065353,290.37007361650467 314.70331966876984,290.37008106708527 313.36998611688614,290.37008106708527 C313.36998239159584,270.3700703382492 313.36998239159584,250.37005960941315 313.36997866630554,230.3700488805771 Z "/>
<path style="fill:none;stroke:#000000;stroke-width:1px;stroke-linecap:butt;stroke-linejoin:miter;stroke-opacity:1" d="M313.36999356746674,330.3700317442417 C314.70332711935043,330.3700317442417 316.03666067123413,330.3700317442417 317.3699942231178,330.3700317442417 C317.3699979484081,337.0367069542408 317.3699979484081,343.7033784389496 317.3700016736984,350.37005364894867 C316.0366681218147,350.3700555115938 314.70333456993103,350.3700592368841 313.37000101804733,350.37006109952927 C313.36999729275703,343.70338402688503 313.36999729275703,337.0367069542408 313.36999356746674,330.3700317442417 Z "/>
<path style="fill:none;stroke:#000000;stroke-width:1px;stroke-linecap:butt;stroke-linejoin:miter;stroke-opacity:1" d="M315.3700013458729,298.37006002664566 C316.47425189614296,298.37006002664566 317.3700016736984,299.2658060789108 317.3700016736984,300.3700566291809 C317.3700016736984,301.474307179451 316.47425189614296,302.37005323171616 315.3700013458729,302.37005323171616 C314.2657507956028,302.37005323171616 313.37000101804733,301.474307179451 313.37000101804733,300.3700566291809 C313.37000101804733,299.2658060789108 314.2657507956028,298.37006002664566 315.3700013458729,298.37006002664566 Z "/>
<path style="fill:none;stroke:#000000;stroke-width:1px;stroke-linecap:butt;stroke-linejoin:miter;stroke-opacity:1" d="M315.3699678182602,213.3700442314148 C316.47422581911087,213.3700442314148 317.36997932195663,214.26581263542175 317.36997187137604,215.37006318569183 C317.36996442079544,216.4743137359619 316.4742109179497,217.3700374364853 315.3699678182602,217.3700374364853 C314.2657209932804,217.3700374364853 313.36996749043465,216.47429883480072 313.36996376514435,215.37004828453064 C313.36996003985405,214.26579773426056 314.2657135426998,213.3700442314148 315.3699678182602,213.3700442314148 Z "/>
<path style="fill:none;stroke:#000000;stroke-width:1px;stroke-linecap:butt;stroke-linejoin:miter;stroke-opacity:1" d="M315.3699827194214,123.3700555562973 C316.4742183685303,123.3700555562973 317.36996069550514,124.26577925682068 317.36997187137604,125.37001490592957 C317.36998304724693,126.47428035736084 316.47424444556236,127.3700487613678 315.3699827194214,127.37006366252899 C314.265728443861,127.37007856369019 313.36997866630554,126.47431015968323 313.36997866630554,125.37005960941315 C313.36997866630554,124.26580905914307 314.265728443861,123.3700555562973 315.3699827194214,123.3700555562973 Z "/>
<path style="fill:none;stroke:#000000;stroke-width:1px;stroke-linecap:butt;stroke-linejoin:miter;stroke-opacity:1" d="M315.3699380159378,8.370046019554138 C316.4741922914982,8.370046019554138 317.36994206905365,9.265784621238708 317.36994206905365,10.370050072669983 C317.36994206905365,11.474315524101257 316.4741922914982,12.370054125785828 315.3699380159378,12.370054125785828 C314.2656837403774,12.370054125785828 313.36993396282196,11.474315524101257 313.36993396282196,10.370050072669983 C313.36993396282196,9.265784621238708 314.2656837403774,8.370046019554138 315.3699380159378,8.370046019554138 Z "/>
</svg>