<?xml version="1.0" standalone="no"?>
<!DOCTYPE svg PUBLIC "-//W3C//DTD SVG 20010904//EN" "http://www.w3.org/TR/2001/REC-SVG-20010904/DTD/svg10.dtd">
<svg width="74.00001958012581mm" height="120.00000104308128mm"  viewBox="0 0 74.00001958012581 120.00000104308128" xmlns="http://www.w3.org/2000/svg">
    <title>Bezier Curve : MotorTopAbdeckung</title>
    <desc>This is an exported Bezier xml_path from Blender, using the ExportScript by maybites.ch and Craxic</desc>
<path style="fill:none;stroke:#000000;stroke-width:1px;stroke-linecap:butt;stroke-linejoin:miter;stroke-opacity:1" d="M33.0208249874413,5.059995234012604 C33.0208249874413,3.9561917185783386 33.91621154919267,3.0608032941818237 35.02001599594951,3.0608032941818237 C36.12382044270635,3.0608032941818237 37.01920700445771,3.9561917185783386 37.01920700445771,5.059995234012604 C37.01920700445771,6.163798749446869 36.12382044270635,7.059187173843384 35.02001599594951,7.059187173843384 C33.91621154919267,7.059187173843384 33.0208249874413,6.163798749446869 33.0208249874413,5.059995234012604 Z "/>
<path style="fill:none;stroke:#000000;stroke-width:1px;stroke-linecap:butt;stroke-linejoin:miter;stroke-opacity:1" d="M74.02001959457994,120.05998986959457 C74.02001214399934,80.05999076366425 74.02000841870904,40.059995383024216 74.02000096812844,0.05999627709388733 C61.02000069990754,0.05999627709388733 48.02000043168664,0.06000000238418579 35.02000202611089,0.06000000238418579 C30.019999343901873,1.0599983036518097 25.01999619603157,2.0599966049194336 20.01999304816127,3.0599949061870575 C20.01999304816127,4.393328458070755 20.01999304816127,5.726665735244751 20.01999304816127,7.0599992871284485 C13.35332901403308,7.0599992871284485 6.6866640485823154,7.0599992871284485 0.020000014454126358,7.0599992871284485 C0.02000560238957405,42.393334686756134 0.020009327679872513,77.72667008638382 0.020014915615320206,113.0600054860115 C6.686678949743509,113.0600054860115 13.353343915194273,113.0600054860115 20.020007949322462,113.0600054860115 C20.020007949322462,114.3933353126049 20.020007949322462,115.7266688644886 20.020007949322462,117.059998691082 C25.02001156285405,118.05999699234962 30.02001517638564,119.05999901890755 35.02001878991723,120.05999732017517 C48.02001905813813,120.05999359488487 61.020019326359034,120.05999359488487 74.02001959457994,120.05998986959457 Z "/>
<path style="fill:none;stroke:#000000;stroke-width:1px;stroke-linecap:butt;stroke-linejoin:miter;stroke-opacity:1" d="M33.0208249874413,115.06000208854675 C33.0208249874413,113.95619857311249 33.91621154919267,113.06081014871597 35.02001599594951,113.06081014871597 C36.12382044270635,113.06081014871597 37.01920700445771,113.95619857311249 37.01920700445771,115.06000208854675 C37.01920700445771,116.16380560398102 36.12382044270635,117.05919402837753 35.02001599594951,117.05919402837753 C33.91621154919267,117.05919402837753 33.0208249874413,116.16380560398102 33.0208249874413,115.06000208854675 Z "/>
</svg>