<?xml version="1.0" standalone="no"?>
<!DOCTYPE svg PUBLIC "-//W3C//DTD SVG 20010904//EN" "http://www.w3.org/TR/2001/REC-SVG-20010904/DTD/svg10.dtd">
<svg width="90.00001475214958mm" height="114.00002241134644mm"  viewBox="0 0 90.00001475214958 114.00002241134644" xmlns="http://www.w3.org/2000/svg">
    <title>Bezier Curve : MotorFrontAbdeckung</title>
    <desc>This is an exported Bezier xml_path from Blender, using the ExportScript by maybites.ch and Craxic</desc>
<path style="fill:none;stroke:#000000;stroke-width:1px;stroke-linecap:butt;stroke-linejoin:miter;stroke-opacity:1" d="M45.032819498330355,2.0570077896118164 C45.032819498330355,0.9532042741775513 45.92820606008172,0.05781584978103638 47.03201050683856,0.05781584978103638 C48.1358149535954,0.05781584978103638 49.031201515346766,0.9532042741775513 49.031201515346766,2.0570077896118164 C49.031201515346766,3.1608113050460815 48.1358149535954,4.056199729442596 47.03201050683856,4.056199729442596 C45.92820606008172,4.056199729442596 45.032819498330355,3.1608113050460815 45.032819498330355,2.0570077896118164 Z "/>
<path style="fill:none;stroke:#000000;stroke-width:1px;stroke-linecap:butt;stroke-linejoin:miter;stroke-opacity:1" d="M67.03202030435205,114.05700752139091 C67.03202030435205,112.72367396950722 67.03201657906175,111.39034414291382 67.03201657906175,110.05701059103012 C74.69868263974786,110.05701059103012 82.36534870043397,110.05701059103012 90.03201476112008,110.05701059103012 C90.03201103582978,74.72367519140244 90.03200358524919,39.39033979177475 90.03199985995889,4.057004392147064 C82.36533379927278,4.057004392147064 74.69866773858666,4.057004392147064 67.03200167790055,4.057004392147064 C67.03200167790055,2.7236708402633667 67.03200167790055,1.3903335630893707 67.03200167790055,0.05700001120567322 C53.69866429641843,0.05700373649597168 40.36532970890403,0.05700373649597168 27.031992327421904,0.05700746178627014 C27.031992327421904,1.3903410136699677 27.031992327421904,2.7236782908439636 27.031992327421904,4.057011842727661 C18.031994577497244,4.057011842727661 9.031997758895159,4.057011842727661 0.03200000897049904,4.057011842727661 C0.0320037342607975,39.39034724235535 0.032011184841394424,74.72368264198303 0.032014910131692886,110.05701804161072 C9.032012660056353,110.05701804161072 18.032009478658438,110.05701804161072 27.032007228583097,110.05701804161072 C27.032007228583097,111.39035159349442 27.032007228583097,112.72368887066841 27.032007228583097,114.05702242255211 C40.365345541387796,114.05701869726181 53.69868106022477,114.05701124668121 67.03202030435205,114.05700752139091 Z "/>
<path style="fill:none;stroke:#000000;stroke-width:1px;stroke-linecap:butt;stroke-linejoin:miter;stroke-opacity:1" d="M45.032819498330355,112.05701464414597 C45.032819498330355,110.9532111287117 45.92820606008172,110.05782270431519 47.03201050683856,110.05782270431519 C48.1358149535954,110.05782270431519 49.031201515346766,110.9532111287117 49.031201515346766,112.05701464414597 C49.031201515346766,113.16081815958023 48.1358149535954,114.05620658397675 47.03201050683856,114.05620658397675 C45.92820606008172,114.05620658397675 45.032819498330355,113.16081815958023 45.032819498330355,112.05701464414597 Z "/>
</svg>