<?xml version="1.0" standalone="no"?>
<!DOCTYPE svg PUBLIC "-//W3C//DTD SVG 1.1//EN" "http://www.w3.org/Graphics/SVG/1.1/DTD/svg11.dtd">
<svg xmlns="http://www.w3.org/2000/svg" fill-rule="evenodd" width="661.577mm" height="582.942mm" viewBox="0 0 661.577 582.942">
	<g id="Base_mk03_top">
		<path style="fill:rgb(204,204,204);" d="m316.147,285.359l-40.000,69.282c-9.665,16.740 -4.689,25.359 14.641,25.359l80.000,-0.000c19.330,-0.000 24.306,-8.619 14.641,-25.359l-40.000,-69.282c-9.665,-16.740 -19.617,-16.740 -29.282,-0.000zm-205.359,292.641l0.000,-4.000l20.000,-0.000l0.000,4.000zm50.000,-0.000l0.000,-4.000l30.000,-0.000l0.000,4.000zm120.000,-0.000l0.000,-4.000l30.000,-0.000l0.000,4.000zm70.000,-0.000l0.000,-4.000l30.000,-0.000l0.000,4.000zm120.000,-0.000l0.000,-4.000l30.000,-0.000l0.000,4.000zm60.000,-0.000l0.000,-4.000l20.000,-0.000l0.000,4.000zm-202.000,-2.000c-0.000,-1.104 0.896,-2.000 2.000,-2.000c1.104,-0.000 2.000,0.896 2.000,2.000c-0.000,1.104 -0.896,2.000 -2.000,2.000c-1.104,-0.000 -2.000,-0.896 -2.000,-2.000zm-185.000,-0.000c0.000,-1.104 0.896,-2.000 2.000,-2.000c1.104,-0.000 2.000,0.896 2.000,2.000c0.000,1.104 -0.896,2.000 -2.000,2.000c-1.104,-0.000 -2.000,-0.896 -2.000,-2.000zm374.000,-0.000c0.000,1.104 -0.896,2.000 -2.000,2.000c-1.104,-0.000 -2.000,-0.896 -2.000,-2.000c0.000,-1.104 0.896,-2.000 2.000,-2.000c1.104,-0.000 2.000,0.896 2.000,2.000zm23.000,-76.000c21.275,12.157 10.000,40.000 -10.000,40.000l-400.000,-0.000c-20.000,-0.000 -31.275,-27.843 -10.000,-40.000l113.953,-65.116c16.783,-9.590 36.717,-14.884 56.047,-14.884l80.000,-0.000c19.330,-0.000 39.264,5.294 56.047,14.884zm-232.000,-396.000l4.000,-0.000l0.000,26.000l-4.000,-0.000zm0.000,46.000l4.000,-0.000l0.000,60.000l-4.000,-0.000zm2.000,-12.000c1.104,-0.000 2.000,0.896 2.000,2.000c-0.000,1.104 -0.896,2.000 -2.000,2.000c-1.104,-0.000 -2.000,-0.896 -2.000,-2.000c0.000,-1.104 0.896,-2.000 2.000,-2.000zm-0.000,80.000c1.104,-0.000 2.000,0.896 2.000,2.000c0.000,1.104 -0.896,2.000 -2.000,2.000c-1.104,-0.000 -2.000,-0.896 -2.000,-2.000c0.000,-1.104 0.896,-2.000 2.000,-2.000zm-2.000,12.000l4.000,0.000l-0.000,26.000l-4.000,0.000zm-221.564,211.865c-21.166,12.346 -39.641,-11.340 -29.641,-28.660l200.000,-346.410c10.000,-17.321 39.750,-13.163 39.641,11.340l-0.584,131.244c-0.086,19.330 -5.469,39.240 -15.134,55.980l-40.000,69.282c-9.665,16.740 -24.217,31.357 -40.914,41.096zm277.128,-363.731c-0.109,-24.503 29.641,-28.660 39.641,-11.340l200.000,346.410c10.000,17.321 -8.475,41.006 -29.641,28.660l-113.368,-66.128c-16.697,-9.739 -31.249,-24.356 -40.914,-41.096l-40.000,-69.282c-9.665,-16.740 -15.048,-36.651 -15.134,-55.980zm181.818,360.813l-2.000,3.464l-22.517,-13.000l2.000,-3.464zm-39.837,-23.000l-2.000,3.464l-51.962,-30.000l2.000,-3.464zm9.392,7.732c-0.552,0.956 -1.776,1.284 -2.732,0.732c-0.956,-0.552 -1.284,-1.776 -0.732,-2.732c0.552,-0.956 1.776,-1.284 2.732,-0.732c0.956,0.552 1.284,1.776 0.732,2.732zm-69.282,-40.000c-0.552,0.956 -1.776,1.284 -2.732,0.732c-0.956,-0.552 -1.284,-1.776 -0.732,-2.732c0.552,-0.956 1.776,-1.284 2.732,-0.732c0.956,0.552 1.284,1.776 0.732,2.732zm-9.392,-7.732l-2.000,3.464l-22.517,-13.000l2.000,-3.464zm-351.051,200.067l2.502,-1.444l0.750,1.299l2.598,-1.500l-0.750,-1.299l1.732,-1.000l-2.000,-3.464l-1.732,1.000l-0.750,-1.299l-2.598,1.500l0.750,1.299l-2.502,1.444l-9.000,-15.588l-3.464,2.000l2.500,4.330l-2.598,1.500c-1.225,0.707 -3.391,0.127 -4.098,-1.098l-62.000,-107.387c-0.707,-1.225 -0.127,-3.391 1.098,-4.098l2.598,-1.500l2.500,4.330l3.464,-2.000l-9.000,-15.588l2.502,-1.444l0.750,1.299l2.598,-1.500l-0.750,-1.299l1.732,-1.000l-2.000,-3.464l-1.732,1.000l-0.750,-1.299l-2.598,1.500l0.750,1.299l-2.502,1.444l-4.000,-6.928l240.788,-417.058l8.000,-0.000l0.000,2.889l-1.500,-0.000l-0.000,3.000l1.500,-0.000l0.000,2.000l4.000,-0.000l0.000,-2.000l1.500,-0.000l0.000,-3.000l-1.500,-0.000l-0.000,-2.889l18.000,-0.000l0.000,-4.000l-5.000,0.000l0.000,-3.000c0.000,-1.414 1.586,-3.000 3.000,-3.000l124.000,0.000c1.414,-0.000 3.000,1.586 3.000,3.000l0.000,3.000l-5.000,-0.000l0.000,4.000l18.000,-0.000l0.000,2.889l-1.500,-0.000l-0.000,3.000l1.500,-0.000l0.000,2.000l4.000,-0.000l0.000,-2.000l1.500,-0.000l0.000,-3.000l-1.500,-0.000l0.000,-2.889l8.000,0.000l240.788,417.058l-4.000,6.928l-2.502,-1.444l0.750,-1.299l-2.598,-1.500l-0.750,1.299l-1.732,-1.000l-2.000,3.464l1.732,1.000l-0.750,1.299l2.598,1.500l0.750,-1.299l2.502,1.444l-9.000,15.588l3.464,2.000l2.500,-4.330l2.598,1.500c1.225,0.707 1.805,2.873 1.098,4.098l-62.000,107.387c-0.707,1.225 -2.873,1.805 -4.098,1.098l-2.598,-1.500l2.500,-4.330l-3.464,-2.000l-9.000,15.588l-2.502,-1.444l0.750,-1.299l-2.598,-1.500l-0.750,1.299l-1.732,-1.000l-2.000,3.464l1.732,1.000l-0.750,1.299l2.598,1.500l0.750,-1.299l2.502,1.444l-4.000,6.928l-481.577,-0.000zm51.406,-98.962l-2.000,-3.464l22.517,-13.000l2.000,3.464zm39.837,-23.000l-2.000,-3.464l51.962,-30.000l2.000,3.464zm-11.392,4.268c-0.552,-0.956 -0.224,-2.180 0.732,-2.732c0.956,-0.552 2.180,-0.224 2.732,0.732c0.552,0.956 0.224,2.180 -0.732,2.732c-0.956,0.552 -2.180,0.224 -2.732,-0.732zm69.282,-40.000c-0.552,-0.956 -0.224,-2.180 0.732,-2.732c0.956,-0.552 2.180,-0.224 2.732,0.732c0.552,0.956 0.224,2.180 -0.732,2.732c-0.956,0.552 -2.180,0.224 -2.732,-0.732zm11.392,-4.268l-2.000,-3.464l22.517,-13.000l2.000,3.464zm-11.851,-383.578l3.464,2.000l-10.000,17.321l-3.464,-2.000zm-25.000,43.301l3.464,2.000l-15.000,25.981l-3.464,-2.000zm-60.000,103.923l3.464,2.000l-15.000,25.981l-3.464,-2.000zm-35.000,60.622l3.464,2.000l-15.000,25.981l-3.464,-2.000zm-60.000,103.923l3.464,2.000l-15.000,25.981l-3.464,-2.000zm-30.000,51.962l3.464,2.000l-10.000,17.321l-3.464,-2.000zm102.732,-173.937c0.956,0.552 1.284,1.776 0.732,2.732c-0.552,0.956 -1.776,1.284 -2.732,0.732c-0.956,-0.552 -1.284,-1.776 -0.732,-2.732c0.552,-0.956 1.776,-1.284 2.732,-0.732zm92.500,-160.215c0.956,0.552 1.284,1.776 0.732,2.732c-0.552,0.956 -1.776,1.284 -2.732,0.732c-0.956,-0.552 -1.284,-1.776 -0.732,-2.732c0.552,-0.956 1.776,-1.284 2.732,-0.732zm-187.000,323.893c-0.956,-0.552 -1.284,-1.776 -0.732,-2.732c0.552,-0.956 1.776,-1.284 2.732,-0.732c0.956,0.552 1.284,1.776 0.732,2.732c-0.552,0.956 -1.776,1.284 -2.732,0.732zm613.996,27.579l-3.464,2.000l-10.000,-17.321l3.464,-2.000zm-25.000,-43.301l-3.464,2.000l-15.000,-25.981l3.464,-2.000zm-60.000,-103.923l-3.464,2.000l-15.000,-25.981l3.464,-2.000zm-35.000,-60.622l-3.464,2.000l-15.000,-25.981l3.464,-2.000zm-60.000,-103.923l-3.464,2.000l-15.000,-25.981l3.464,-2.000zm-30.000,-51.961l-3.464,2.000l-10.000,-17.320l3.464,-2.000zm99.268,175.937c-0.956,0.552 -2.180,0.224 -2.732,-0.732c-0.552,-0.956 -0.224,-2.180 0.732,-2.732c0.956,-0.552 2.180,-0.224 2.732,0.732c0.552,0.956 0.224,2.180 -0.732,2.732zm92.500,160.215c-0.956,0.552 -2.180,0.224 -2.732,-0.732c-0.552,-0.956 -0.224,-2.180 0.732,-2.732c0.956,-0.552 2.180,-0.224 2.732,0.732c0.552,0.956 0.224,2.180 -0.732,2.732zm-187.000,-323.893c0.956,-0.552 2.180,-0.224 2.732,0.732c0.552,0.956 0.224,2.180 -0.732,2.732c-0.956,0.552 -2.180,0.224 -2.732,-0.732c-0.552,-0.956 -0.224,-2.180 0.732,-2.732z"/>
	</g>
</svg>