<?xml version="1.0" standalone="no"?>
<!DOCTYPE svg PUBLIC "-//W3C//DTD SVG 1.1//EN" "http://www.w3.org/Graphics/SVG/1.1/DTD/svg11.dtd">
<svg xmlns="http://www.w3.org/2000/svg" fill-rule="evenodd" width="476.000mm" height="84.000mm" viewBox="0 0 476.000 84.000">
	<g id="RippeTripple">
		<path style="fill:rgb(204,204,204);" d="m273.000,64.000l-70.000,-0.000c-5.000,-0.000 -10.000,-5.000 -10.000,-10.000l0.000,-24.000c-0.000,-5.000 5.000,-10.000 10.000,-10.000l70.000,-0.000c5.000,0.000 10.000,5.000 10.000,10.000l0.000,24.000c0.000,5.000 -5.000,10.000 -10.000,10.000zm-110.000,-0.000l-130.000,-0.000c-5.000,-0.000 -10.000,-5.000 -10.000,-10.000l0.000,-24.000c0.000,-5.000 5.000,-10.000 10.000,-10.000l130.000,-0.000c5.000,-0.000 10.000,5.000 10.000,10.000l0.000,24.000c0.000,5.000 -5.000,10.000 -10.000,10.000zm76.993,16.000l0.000,-3.000l1.542,-0.000l0.000,-2.920l-1.542,-0.000l0.000,-2.080l-4.000,-0.000l-0.000,2.080l-1.500,-0.000l0.000,2.920l1.500,-0.000l0.000,3.000l-17.993,-0.000l0.000,4.000l-30.000,0.000l0.000,-4.000l-90.000,0.000l0.000,4.000l-30.000,0.000l0.000,-4.000l-13.021,-0.000l0.000,-3.000l1.542,-0.000l0.000,-2.920l-1.542,-0.000l0.000,-2.080l-4.000,-0.000l-0.000,2.080l-1.500,-0.000l0.000,2.920l1.500,-0.000l0.000,3.000l-12.979,-0.000l0.000,4.000l-20.000,-0.000l-0.000,-4.000l-18.000,-0.000l0.000,-76.000l18.000,-0.000l0.000,-4.000l20.000,-0.000l0.000,4.000l13.021,-0.000l0.000,3.000l-1.542,-0.000l-0.000,2.997l1.542,-0.000l0.000,2.003l4.000,-0.000l0.000,-2.003l1.500,-0.000l0.000,-2.997l-1.500,-0.000l0.000,-3.000l12.979,0.000l0.000,-4.000l30.000,-0.000l0.000,4.000l90.000,-0.000l0.000,-4.000l30.000,-0.000l0.000,4.000l18.021,-0.000l0.000,3.000l-1.542,-0.000l-0.000,2.997l1.542,-0.000l0.000,2.003l4.000,-0.000l0.000,-2.003l1.500,-0.000l0.000,-2.997l-1.500,-0.000l-0.000,-3.000l17.979,0.000l0.000,-4.000l30.000,-0.000l0.000,4.000l90.000,-0.000l0.000,-4.000l30.000,-0.000l0.000,4.000l13.021,-0.000l0.000,3.000l-1.542,-0.000l0.000,2.997l1.542,-0.000l0.000,2.003l4.000,-0.000l0.000,-2.003l1.500,-0.000l0.000,-2.997l-1.500,-0.000l-0.000,-3.000l12.979,0.000l0.000,-4.000l20.000,-0.000l0.000,4.000l18.000,-0.000l0.000,76.000l-18.000,-0.000l-0.000,4.000l-20.000,-0.000l0.000,-4.000l-13.021,0.000l0.000,-3.000l1.542,-0.000l0.000,-2.920l-1.542,-0.000l0.000,-2.080l-4.000,-0.000l0.000,2.080l-1.500,-0.000l-0.000,2.920l1.500,-0.000l0.000,3.000l-12.979,-0.000l0.000,4.000l-30.000,0.000l0.000,-4.000l-90.000,0.000l0.000,4.000l-30.000,0.000l0.000,-4.000zm203.007,-16.000l-130.000,-0.000c-5.000,-0.000 -10.000,-5.000 -10.000,-10.000l0.000,-24.000c0.000,-5.000 5.000,-10.000 10.000,-10.000l130.000,-0.000c5.000,-0.000 10.000,5.000 10.000,10.000l0.000,24.000c0.000,5.000 -5.000,10.000 -10.000,10.000z"/>
	</g>
</svg>