<?xml version="1.0" standalone="no"?>
<!DOCTYPE svg PUBLIC "-//W3C//DTD SVG 1.1//EN" "http://www.w3.org/Graphics/SVG/1.1/DTD/svg11.dtd">
<svg xmlns="http://www.w3.org/2000/svg" fill-rule="evenodd" width="84.030mm" height="180.000mm" viewBox="0 0 84.030 180.000">
	<g id="Rippe">
		<path style="fill:rgb(204,204,204);" d="m0.000,120.000l4.000,-0.000l-0.000,8.000l3.000,-0.000l0.000,-1.500l3.000,-0.000l0.000,1.500l2.000,-0.000l0.000,4.000l-2.000,-0.000l0.000,1.500l-3.000,-0.000l0.000,-1.500l-3.000,-0.000l0.000,8.000l-4.000,-0.000l-0.000,26.000l4.000,-0.000l0.015,14.000c1.000,-4.000 5.000,-10.000 10.000,-10.000l56.000,-0.000c4.000,-0.000 9.000,6.000 10.000,10.000l-0.015,-14.000l4.000,-0.000l0.000,-26.000l-4.000,-0.000l-0.000,-8.000l-3.000,-0.000l0.000,1.500l-3.000,-0.000l0.000,-1.500l-2.000,-0.000l0.000,-4.000l2.000,-0.000l0.000,-1.500l3.000,-0.000l0.000,1.500l3.000,-0.000l0.000,-8.000l4.000,-0.000l0.030,-60.000l-4.000,-0.000l-0.000,-8.000l-3.000,-0.000l0.000,1.500l-3.000,-0.000l0.000,-1.500l-2.000,-0.000l0.000,-4.000l2.000,-0.000l0.000,-1.500l3.000,-0.000l0.000,1.500l3.000,-0.000l0.000,-8.000l4.000,-0.000l-0.030,-26.000l-4.000,-0.000l0.015,-14.000c-1.000,4.000 -6.000,10.000 -10.000,10.000l-56.000,-0.000c-4.000,-0.000 -9.000,-6.000 -10.000,-10.000l-0.015,14.000l-4.000,-0.000l0.030,26.000l4.000,-0.000l-0.000,8.000l3.000,-0.000l0.000,-1.500l3.000,-0.000l0.000,1.500l2.000,-0.000l0.000,4.000l-2.000,-0.000l0.000,1.500l-3.000,-0.000l0.000,-1.500l-3.000,-0.000l0.000,8.000l-4.000,-0.000zm62.000,30.000c0.000,4.714 -5.286,10.000 -10.000,10.000l-20.000,-0.000c-4.714,-0.000 -10.000,-5.286 -10.000,-10.000l0.000,-120.000c0.000,-4.714 5.286,-10.000 10.000,-10.000l20.000,-0.000c4.714,-0.000 10.000,5.286 10.000,10.000z"/>
	</g>
</svg>